<?xml version="1.0" encoding="UTF-8" standalone="no"?><svg xmlns="http://www.w3.org/2000/svg" xmlns:xlink="http://www.w3.org/1999/xlink" contentScriptType="application/ecmascript" contentStyleType="text/css" height="914px" preserveAspectRatio="none" style="width:3769px;height:914px;" version="1.1" viewBox="0 0 3769 914" width="3769px" zoomAndPan="magnify"><defs><filter height="300%" id="f4zd680r4a6xh" width="300%" x="-1" y="-1"><feGaussianBlur result="blurOut" stdDeviation="2.0"/><feColorMatrix in="blurOut" result="blurOut2" type="matrix" values="0 0 0 0 0 0 0 0 0 0 0 0 0 0 0 0 0 0 .4 0"/><feOffset dx="4.0" dy="4.0" in="blurOut2" result="blurOut3"/><feBlend in="SourceGraphic" in2="blurOut3" mode="normal"/></filter></defs><g><!--cluster android.app--><polygon fill="#FFFFFF" filter="url(#f4zd680r4a6xh)" points="1808,436.5,1898,436.5,1905,460.1094,1908,460.1094,1908,536.5,1808,536.5,1808,436.5" style="stroke: #000000; stroke-width: 2.0;"/><line style="stroke: #000000; stroke-width: 2.0;" x1="1808" x2="1905" y1="460.1094" y2="460.1094"/><text fill="#000000" font-family="sans-serif" font-size="14" font-weight="bold" lengthAdjust="spacingAndGlyphs" textLength="84" x="1812" y="453.0332">android.app</text><!--cluster android.content--><polygon fill="#FFFFFF" filter="url(#f4zd680r4a6xh)" points="2626,107,2744,107,2751,130.6094,2754,130.6094,2754,207,2626,207,2626,107" style="stroke: #000000; stroke-width: 2.0;"/><line style="stroke: #000000; stroke-width: 2.0;" x1="2626" x2="2751" y1="130.6094" y2="130.6094"/><text fill="#000000" font-family="sans-serif" font-size="14" font-weight="bold" lengthAdjust="spacingAndGlyphs" textLength="112" x="2630" y="123.5332">android.content</text><!--cluster android.os--><polygon fill="#FFFFFF" filter="url(#f4zd680r4a6xh)" points="2778,107,2859,107,2866,130.6094,2993,130.6094,2993,207,2778,207,2778,107" style="stroke: #000000; stroke-width: 2.0;"/><line style="stroke: #000000; stroke-width: 2.0;" x1="2778" x2="2866" y1="130.6094" y2="130.6094"/><text fill="#000000" font-family="sans-serif" font-size="14" font-weight="bold" lengthAdjust="spacingAndGlyphs" textLength="75" x="2782" y="123.5332">android.os</text><!--cluster android.text--><polygon fill="#FFFFFF" filter="url(#f4zd680r4a6xh)" points="3017,107,3108,107,3115,130.6094,3129,130.6094,3129,207,3017,207,3017,107" style="stroke: #000000; stroke-width: 2.0;"/><line style="stroke: #000000; stroke-width: 2.0;" x1="3017" x2="3115" y1="130.6094" y2="130.6094"/><text fill="#000000" font-family="sans-serif" font-size="14" font-weight="bold" lengthAdjust="spacingAndGlyphs" textLength="85" x="3021" y="123.5332">android.text</text><!--cluster android.view--><polygon fill="#FFFFFF" filter="url(#f4zd680r4a6xh)" points="52,107,149,107,156,130.6094,267,130.6094,267,536.5,52,536.5,52,107" style="stroke: #000000; stroke-width: 2.0;"/><line style="stroke: #000000; stroke-width: 2.0;" x1="52" x2="156" y1="130.6094" y2="130.6094"/><text fill="#000000" font-family="sans-serif" font-size="14" font-weight="bold" lengthAdjust="spacingAndGlyphs" textLength="91" x="56" y="123.5332">android.view</text><!--cluster android.widget--><polygon fill="#FFFFFF" filter="url(#f4zd680r4a6xh)" points="291,107,402,107,409,130.6094,670,130.6094,670,536.5,291,536.5,291,107" style="stroke: #000000; stroke-width: 2.0;"/><line style="stroke: #000000; stroke-width: 2.0;" x1="291" x2="409" y1="130.6094" y2="130.6094"/><text fill="#000000" font-family="sans-serif" font-size="14" font-weight="bold" lengthAdjust="spacingAndGlyphs" textLength="105" x="295" y="123.5332">android.widget</text><!--cluster com.antonioleiva.mvpexample.app.Login--><polygon fill="#FFFFFF" filter="url(#f4zd680r4a6xh)" points="694,24,986,24,993,47.6094,1382,47.6094,1382,675,694,675,694,24" style="stroke: #000000; stroke-width: 2.0;"/><line style="stroke: #000000; stroke-width: 2.0;" x1="694" x2="993" y1="47.6094" y2="47.6094"/><text fill="#000000" font-family="sans-serif" font-size="14" font-weight="bold" lengthAdjust="spacingAndGlyphs" textLength="286" x="698" y="40.5332">com.antonioleiva.mvpexample.app.Login</text><!--cluster com.antonioleiva.mvpexample.app.main--><polygon fill="#FFFFFF" filter="url(#f4zd680r4a6xh)" points="1932,107,2218,107,2225,130.6094,2602,130.6094,2602,599,1932,599,1932,107" style="stroke: #000000; stroke-width: 2.0;"/><line style="stroke: #000000; stroke-width: 2.0;" x1="1932" x2="2225" y1="130.6094" y2="130.6094"/><text fill="#000000" font-family="sans-serif" font-size="14" font-weight="bold" lengthAdjust="spacingAndGlyphs" textLength="280" x="1936" y="123.5332">com.antonioleiva.mvpexample.app.main</text><!--cluster org.hamcrest--><polygon fill="#FFFFFF" filter="url(#f4zd680r4a6xh)" points="3153,107,3252,107,3259,130.6094,3440,130.6094,3440,207,3153,207,3153,107" style="stroke: #000000; stroke-width: 2.0;"/><line style="stroke: #000000; stroke-width: 2.0;" x1="3153" x2="3259" y1="130.6094" y2="130.6094"/><text fill="#000000" font-family="sans-serif" font-size="14" font-weight="bold" lengthAdjust="spacingAndGlyphs" textLength="93" x="3157" y="123.5332">org.hamcrest</text><!--cluster org.junit--><polygon fill="#FFFFFF" filter="url(#f4zd680r4a6xh)" points="3464,107,3529,107,3536,130.6094,3564,130.6094,3564,207,3464,207,3464,107" style="stroke: #000000; stroke-width: 2.0;"/><line style="stroke: #000000; stroke-width: 2.0;" x1="3464" x2="3536" y1="130.6094" y2="130.6094"/><text fill="#000000" font-family="sans-serif" font-size="14" font-weight="bold" lengthAdjust="spacingAndGlyphs" textLength="59" x="3468" y="123.5332">org.junit</text><!--cluster org.mockito--><polygon fill="#FFFFFF" filter="url(#f4zd680r4a6xh)" points="22,699,111,699,118,722.6094,293,722.6094,293,907,22,907,22,699" style="stroke: #000000; stroke-width: 2.0;"/><line style="stroke: #000000; stroke-width: 2.0;" x1="22" x2="118" y1="722.6094" y2="722.6094"/><text fill="#000000" font-family="sans-serif" font-size="14" font-weight="bold" lengthAdjust="spacingAndGlyphs" textLength="83" x="26" y="715.5332">org.mockito</text><!--cluster org.mockito.runners--><polygon fill="#FFFFFF" filter="url(#f4zd680r4a6xh)" points="3588,107,3737,107,3744,130.6094,3762,130.6094,3762,207,3588,207,3588,107" style="stroke: #000000; stroke-width: 2.0;"/><line style="stroke: #000000; stroke-width: 2.0;" x1="3588" x2="3744" y1="130.6094" y2="130.6094"/><text fill="#000000" font-family="sans-serif" font-size="14" font-weight="bold" lengthAdjust="spacingAndGlyphs" textLength="143" x="3592" y="123.5332">org.mockito.runners</text><!--cluster AdapterView--><polygon fill="#FFFFFF" filter="url(#f4zd680r4a6xh)" points="2626,436.5,2720,436.5,2727,460.1094,2804,460.1094,2804,536.5,2626,536.5,2626,436.5" style="stroke: #000000; stroke-width: 2.0;"/><line style="stroke: #000000; stroke-width: 2.0;" x1="2626" x2="2727" y1="460.1094" y2="460.1094"/><text fill="#000000" font-family="sans-serif" font-size="14" font-weight="bold" lengthAdjust="spacingAndGlyphs" textLength="88" x="2630" y="453.0332">AdapterView</text><!--cluster FindItemsInteractor--><polygon fill="#FFFFFF" filter="url(#f4zd680r4a6xh)" points="2828,436.5,2972,436.5,2979,460.1094,3000,460.1094,3000,536.5,2828,536.5,2828,436.5" style="stroke: #000000; stroke-width: 2.0;"/><line style="stroke: #000000; stroke-width: 2.0;" x1="2828" x2="2979" y1="460.1094" y2="460.1094"/><text fill="#000000" font-family="sans-serif" font-size="14" font-weight="bold" lengthAdjust="spacingAndGlyphs" textLength="138" x="2832" y="453.0332">FindItemsInteractor</text><!--cluster LoginInteractor--><polygon fill="#FFFFFF" filter="url(#f4zd680r4a6xh)" points="1582,436.5,1696,436.5,1703,460.1094,1784,460.1094,1784,536.5,1582,536.5,1582,436.5" style="stroke: #000000; stroke-width: 2.0;"/><line style="stroke: #000000; stroke-width: 2.0;" x1="1582" x2="1703" y1="460.1094" y2="460.1094"/><text fill="#000000" font-family="sans-serif" font-size="14" font-weight="bold" lengthAdjust="spacingAndGlyphs" textLength="108" x="1586" y="453.0332">LoginInteractor</text><!--cluster View--><polygon fill="#FFFFFF" filter="url(#f4zd680r4a6xh)" points="1406,436.5,1445,436.5,1452,460.1094,1558,460.1094,1558,536.5,1406,536.5,1406,436.5" style="stroke: #000000; stroke-width: 2.0;"/><line style="stroke: #000000; stroke-width: 2.0;" x1="1406" x2="1452" y1="460.1094" y2="460.1094"/><text fill="#000000" font-family="sans-serif" font-size="14" font-weight="bold" lengthAdjust="spacingAndGlyphs" textLength="33" x="1410" y="453.0332">View</text><!--class android.app.Activity--><rect fill="#FEFECE" filter="url(#f4zd680r4a6xh)" height="48" id="android.app.Activity" style="stroke: #A80036; stroke-width: 1.5;" width="67" x="1824.5" y="472.5"/><ellipse cx="1839.5" cy="488.5" fill="#ADD1B2" rx="11" ry="11" style="stroke: #A80036; stroke-width: 1.0;"/><path d="M1842.2656,484.375 Q1842.4219,484.1563 1842.6094,484.0469 Q1842.7969,483.9375 1843.0156,483.9375 Q1843.3906,483.9375 1843.625,484.1953 Q1843.8594,484.4531 1843.8594,485.0625 L1843.8594,486.5156 Q1843.8594,487.125 1843.625,487.3906 Q1843.3906,487.6563 1843.0156,487.6563 Q1842.6719,487.6563 1842.4688,487.4531 Q1842.2656,487.2656 1842.1563,486.75 Q1842.1094,486.3906 1841.9219,486.2031 Q1841.5938,485.8281 1840.9844,485.6094 Q1840.375,485.3906 1839.75,485.3906 Q1838.9844,485.3906 1838.3516,485.7188 Q1837.7188,486.0469 1837.2266,486.7969 Q1836.7344,487.5469 1836.7344,488.5781 L1836.7344,489.6719 Q1836.7344,490.9063 1837.625,491.7266 Q1838.5156,492.5469 1840.1094,492.5469 Q1841.0469,492.5469 1841.7031,492.2969 Q1842.0938,492.1406 1842.5156,491.7031 Q1842.7813,491.4375 1842.9297,491.3594 Q1843.0781,491.2813 1843.2813,491.2813 Q1843.6094,491.2813 1843.8672,491.5391 Q1844.125,491.7969 1844.125,492.1406 Q1844.125,492.4844 1843.7813,492.8906 Q1843.2813,493.4688 1842.4844,493.7969 Q1841.4063,494.25 1840.1094,494.25 Q1838.5938,494.25 1837.3906,493.625 Q1836.4063,493.125 1835.7188,492.0547 Q1835.0313,490.9844 1835.0313,489.7031 L1835.0313,488.5469 Q1835.0313,487.2188 1835.6484,486.0703 Q1836.2656,484.9219 1837.3594,484.3047 Q1838.4531,483.6875 1839.6875,483.6875 Q1840.4219,483.6875 1841.0703,483.8516 Q1841.7188,484.0156 1842.2656,484.375 Z "/><text fill="#000000" font-family="sans-serif" font-size="12" lengthAdjust="spacingAndGlyphs" textLength="35" x="1853.5" y="493.4102">Activity</text><line style="stroke: #A80036; stroke-width: 1.5;" x1="1825.5" x2="1890.5" y1="504.5" y2="504.5"/><line style="stroke: #A80036; stroke-width: 1.5;" x1="1825.5" x2="1890.5" y1="512.5" y2="512.5"/><!--class android.content.Intent--><rect fill="#FEFECE" filter="url(#f4zd680r4a6xh)" height="48" id="android.content.Intent" style="stroke: #A80036; stroke-width: 1.5;" width="62" x="2659" y="143"/><ellipse cx="2674" cy="159" fill="#ADD1B2" rx="11" ry="11" style="stroke: #A80036; stroke-width: 1.0;"/><path d="M2676.7656,154.875 Q2676.9219,154.6563 2677.1094,154.5469 Q2677.2969,154.4375 2677.5156,154.4375 Q2677.8906,154.4375 2678.125,154.6953 Q2678.3594,154.9531 2678.3594,155.5625 L2678.3594,157.0156 Q2678.3594,157.625 2678.125,157.8906 Q2677.8906,158.1563 2677.5156,158.1563 Q2677.1719,158.1563 2676.9688,157.9531 Q2676.7656,157.7656 2676.6563,157.25 Q2676.6094,156.8906 2676.4219,156.7031 Q2676.0938,156.3281 2675.4844,156.1094 Q2674.875,155.8906 2674.25,155.8906 Q2673.4844,155.8906 2672.8516,156.2188 Q2672.2188,156.5469 2671.7266,157.2969 Q2671.2344,158.0469 2671.2344,159.0781 L2671.2344,160.1719 Q2671.2344,161.4063 2672.125,162.2266 Q2673.0156,163.0469 2674.6094,163.0469 Q2675.5469,163.0469 2676.2031,162.7969 Q2676.5938,162.6406 2677.0156,162.2031 Q2677.2813,161.9375 2677.4297,161.8594 Q2677.5781,161.7813 2677.7813,161.7813 Q2678.1094,161.7813 2678.3672,162.0391 Q2678.625,162.2969 2678.625,162.6406 Q2678.625,162.9844 2678.2813,163.3906 Q2677.7813,163.9688 2676.9844,164.2969 Q2675.9063,164.75 2674.6094,164.75 Q2673.0938,164.75 2671.8906,164.125 Q2670.9063,163.625 2670.2188,162.5547 Q2669.5313,161.4844 2669.5313,160.2031 L2669.5313,159.0469 Q2669.5313,157.7188 2670.1484,156.5703 Q2670.7656,155.4219 2671.8594,154.8047 Q2672.9531,154.1875 2674.1875,154.1875 Q2674.9219,154.1875 2675.5703,154.3516 Q2676.2188,154.5156 2676.7656,154.875 Z "/><text fill="#000000" font-family="sans-serif" font-size="12" lengthAdjust="spacingAndGlyphs" textLength="30" x="2688" y="163.9102">Intent</text><line style="stroke: #A80036; stroke-width: 1.5;" x1="2660" x2="2720" y1="175" y2="175"/><line style="stroke: #A80036; stroke-width: 1.5;" x1="2660" x2="2720" y1="183" y2="183"/><!--class android.os.Bundle--><rect fill="#FEFECE" filter="url(#f4zd680r4a6xh)" height="48" id="android.os.Bundle" style="stroke: #A80036; stroke-width: 1.5;" width="71" x="2905.5" y="143"/><ellipse cx="2920.5" cy="159" fill="#ADD1B2" rx="11" ry="11" style="stroke: #A80036; stroke-width: 1.0;"/><path d="M2923.2656,154.875 Q2923.4219,154.6563 2923.6094,154.5469 Q2923.7969,154.4375 2924.0156,154.4375 Q2924.3906,154.4375 2924.625,154.6953 Q2924.8594,154.9531 2924.8594,155.5625 L2924.8594,157.0156 Q2924.8594,157.625 2924.625,157.8906 Q2924.3906,158.1563 2924.0156,158.1563 Q2923.6719,158.1563 2923.4688,157.9531 Q2923.2656,157.7656 2923.1563,157.25 Q2923.1094,156.8906 2922.9219,156.7031 Q2922.5938,156.3281 2921.9844,156.1094 Q2921.375,155.8906 2920.75,155.8906 Q2919.9844,155.8906 2919.3516,156.2188 Q2918.7188,156.5469 2918.2266,157.2969 Q2917.7344,158.0469 2917.7344,159.0781 L2917.7344,160.1719 Q2917.7344,161.4063 2918.625,162.2266 Q2919.5156,163.0469 2921.1094,163.0469 Q2922.0469,163.0469 2922.7031,162.7969 Q2923.0938,162.6406 2923.5156,162.2031 Q2923.7813,161.9375 2923.9297,161.8594 Q2924.0781,161.7813 2924.2813,161.7813 Q2924.6094,161.7813 2924.8672,162.0391 Q2925.125,162.2969 2925.125,162.6406 Q2925.125,162.9844 2924.7813,163.3906 Q2924.2813,163.9688 2923.4844,164.2969 Q2922.4063,164.75 2921.1094,164.75 Q2919.5938,164.75 2918.3906,164.125 Q2917.4063,163.625 2916.7188,162.5547 Q2916.0313,161.4844 2916.0313,160.2031 L2916.0313,159.0469 Q2916.0313,157.7188 2916.6484,156.5703 Q2917.2656,155.4219 2918.3594,154.8047 Q2919.4531,154.1875 2920.6875,154.1875 Q2921.4219,154.1875 2922.0703,154.3516 Q2922.7188,154.5156 2923.2656,154.875 Z "/><text fill="#000000" font-family="sans-serif" font-size="12" lengthAdjust="spacingAndGlyphs" textLength="39" x="2934.5" y="163.9102">Bundle</text><line style="stroke: #A80036; stroke-width: 1.5;" x1="2906.5" x2="2975.5" y1="175" y2="175"/><line style="stroke: #A80036; stroke-width: 1.5;" x1="2906.5" x2="2975.5" y1="183" y2="183"/><!--class android.os.Handler--><rect fill="#FEFECE" filter="url(#f4zd680r4a6xh)" height="48" id="android.os.Handler" style="stroke: #A80036; stroke-width: 1.5;" width="76" x="2794" y="143"/><ellipse cx="2809" cy="159" fill="#ADD1B2" rx="11" ry="11" style="stroke: #A80036; stroke-width: 1.0;"/><path d="M2811.7656,154.875 Q2811.9219,154.6563 2812.1094,154.5469 Q2812.2969,154.4375 2812.5156,154.4375 Q2812.8906,154.4375 2813.125,154.6953 Q2813.3594,154.9531 2813.3594,155.5625 L2813.3594,157.0156 Q2813.3594,157.625 2813.125,157.8906 Q2812.8906,158.1563 2812.5156,158.1563 Q2812.1719,158.1563 2811.9688,157.9531 Q2811.7656,157.7656 2811.6563,157.25 Q2811.6094,156.8906 2811.4219,156.7031 Q2811.0938,156.3281 2810.4844,156.1094 Q2809.875,155.8906 2809.25,155.8906 Q2808.4844,155.8906 2807.8516,156.2188 Q2807.2188,156.5469 2806.7266,157.2969 Q2806.2344,158.0469 2806.2344,159.0781 L2806.2344,160.1719 Q2806.2344,161.4063 2807.125,162.2266 Q2808.0156,163.0469 2809.6094,163.0469 Q2810.5469,163.0469 2811.2031,162.7969 Q2811.5938,162.6406 2812.0156,162.2031 Q2812.2813,161.9375 2812.4297,161.8594 Q2812.5781,161.7813 2812.7813,161.7813 Q2813.1094,161.7813 2813.3672,162.0391 Q2813.625,162.2969 2813.625,162.6406 Q2813.625,162.9844 2813.2813,163.3906 Q2812.7813,163.9688 2811.9844,164.2969 Q2810.9063,164.75 2809.6094,164.75 Q2808.0938,164.75 2806.8906,164.125 Q2805.9063,163.625 2805.2188,162.5547 Q2804.5313,161.4844 2804.5313,160.2031 L2804.5313,159.0469 Q2804.5313,157.7188 2805.1484,156.5703 Q2805.7656,155.4219 2806.8594,154.8047 Q2807.9531,154.1875 2809.1875,154.1875 Q2809.9219,154.1875 2810.5703,154.3516 Q2811.2188,154.5156 2811.7656,154.875 Z "/><text fill="#000000" font-family="sans-serif" font-size="12" lengthAdjust="spacingAndGlyphs" textLength="44" x="2823" y="163.9102">Handler</text><line style="stroke: #A80036; stroke-width: 1.5;" x1="2795" x2="2869" y1="175" y2="175"/><line style="stroke: #A80036; stroke-width: 1.5;" x1="2795" x2="2869" y1="183" y2="183"/><!--class android.text.TextUtils--><rect fill="#FEFECE" filter="url(#f4zd680r4a6xh)" height="48" id="android.text.TextUtils" style="stroke: #A80036; stroke-width: 1.5;" width="79" x="3033.5" y="143"/><ellipse cx="3048.5" cy="159" fill="#ADD1B2" rx="11" ry="11" style="stroke: #A80036; stroke-width: 1.0;"/><path d="M3051.2656,154.875 Q3051.4219,154.6563 3051.6094,154.5469 Q3051.7969,154.4375 3052.0156,154.4375 Q3052.3906,154.4375 3052.625,154.6953 Q3052.8594,154.9531 3052.8594,155.5625 L3052.8594,157.0156 Q3052.8594,157.625 3052.625,157.8906 Q3052.3906,158.1563 3052.0156,158.1563 Q3051.6719,158.1563 3051.4688,157.9531 Q3051.2656,157.7656 3051.1563,157.25 Q3051.1094,156.8906 3050.9219,156.7031 Q3050.5938,156.3281 3049.9844,156.1094 Q3049.375,155.8906 3048.75,155.8906 Q3047.9844,155.8906 3047.3516,156.2188 Q3046.7188,156.5469 3046.2266,157.2969 Q3045.7344,158.0469 3045.7344,159.0781 L3045.7344,160.1719 Q3045.7344,161.4063 3046.625,162.2266 Q3047.5156,163.0469 3049.1094,163.0469 Q3050.0469,163.0469 3050.7031,162.7969 Q3051.0938,162.6406 3051.5156,162.2031 Q3051.7813,161.9375 3051.9297,161.8594 Q3052.0781,161.7813 3052.2813,161.7813 Q3052.6094,161.7813 3052.8672,162.0391 Q3053.125,162.2969 3053.125,162.6406 Q3053.125,162.9844 3052.7813,163.3906 Q3052.2813,163.9688 3051.4844,164.2969 Q3050.4063,164.75 3049.1094,164.75 Q3047.5938,164.75 3046.3906,164.125 Q3045.4063,163.625 3044.7188,162.5547 Q3044.0313,161.4844 3044.0313,160.2031 L3044.0313,159.0469 Q3044.0313,157.7188 3044.6484,156.5703 Q3045.2656,155.4219 3046.3594,154.8047 Q3047.4531,154.1875 3048.6875,154.1875 Q3049.4219,154.1875 3050.0703,154.3516 Q3050.7188,154.5156 3051.2656,154.875 Z "/><text fill="#000000" font-family="sans-serif" font-size="12" lengthAdjust="spacingAndGlyphs" textLength="47" x="3062.5" y="163.9102">TextUtils</text><line style="stroke: #A80036; stroke-width: 1.5;" x1="3034.5" x2="3111.5" y1="175" y2="175"/><line style="stroke: #A80036; stroke-width: 1.5;" x1="3034.5" x2="3111.5" y1="183" y2="183"/><!--class android.view.Menu--><rect fill="#FEFECE" filter="url(#f4zd680r4a6xh)" height="48" id="android.view.Menu" style="stroke: #A80036; stroke-width: 1.5;" width="62" x="68" y="143"/><ellipse cx="83" cy="159" fill="#ADD1B2" rx="11" ry="11" style="stroke: #A80036; stroke-width: 1.0;"/><path d="M85.7656,154.875 Q85.9219,154.6563 86.1094,154.5469 Q86.2969,154.4375 86.5156,154.4375 Q86.8906,154.4375 87.125,154.6953 Q87.3594,154.9531 87.3594,155.5625 L87.3594,157.0156 Q87.3594,157.625 87.125,157.8906 Q86.8906,158.1563 86.5156,158.1563 Q86.1719,158.1563 85.9688,157.9531 Q85.7656,157.7656 85.6563,157.25 Q85.6094,156.8906 85.4219,156.7031 Q85.0938,156.3281 84.4844,156.1094 Q83.875,155.8906 83.25,155.8906 Q82.4844,155.8906 81.8516,156.2188 Q81.2188,156.5469 80.7266,157.2969 Q80.2344,158.0469 80.2344,159.0781 L80.2344,160.1719 Q80.2344,161.4063 81.125,162.2266 Q82.0156,163.0469 83.6094,163.0469 Q84.5469,163.0469 85.2031,162.7969 Q85.5938,162.6406 86.0156,162.2031 Q86.2813,161.9375 86.4297,161.8594 Q86.5781,161.7813 86.7813,161.7813 Q87.1094,161.7813 87.3672,162.0391 Q87.625,162.2969 87.625,162.6406 Q87.625,162.9844 87.2813,163.3906 Q86.7813,163.9688 85.9844,164.2969 Q84.9063,164.75 83.6094,164.75 Q82.0938,164.75 80.8906,164.125 Q79.9063,163.625 79.2188,162.5547 Q78.5313,161.4844 78.5313,160.2031 L78.5313,159.0469 Q78.5313,157.7188 79.1484,156.5703 Q79.7656,155.4219 80.8594,154.8047 Q81.9531,154.1875 83.1875,154.1875 Q83.9219,154.1875 84.5703,154.3516 Q85.2188,154.5156 85.7656,154.875 Z "/><text fill="#000000" font-family="sans-serif" font-size="12" lengthAdjust="spacingAndGlyphs" textLength="30" x="97" y="163.9102">Menu</text><line style="stroke: #A80036; stroke-width: 1.5;" x1="69" x2="129" y1="175" y2="175"/><line style="stroke: #A80036; stroke-width: 1.5;" x1="69" x2="129" y1="183" y2="183"/><!--class android.view.MenuItem--><rect fill="#FEFECE" filter="url(#f4zd680r4a6xh)" height="48" id="android.view.MenuItem" style="stroke: #A80036; stroke-width: 1.5;" width="86" x="165" y="143"/><ellipse cx="180" cy="159" fill="#ADD1B2" rx="11" ry="11" style="stroke: #A80036; stroke-width: 1.0;"/><path d="M182.7656,154.875 Q182.9219,154.6563 183.1094,154.5469 Q183.2969,154.4375 183.5156,154.4375 Q183.8906,154.4375 184.125,154.6953 Q184.3594,154.9531 184.3594,155.5625 L184.3594,157.0156 Q184.3594,157.625 184.125,157.8906 Q183.8906,158.1563 183.5156,158.1563 Q183.1719,158.1563 182.9688,157.9531 Q182.7656,157.7656 182.6563,157.25 Q182.6094,156.8906 182.4219,156.7031 Q182.0938,156.3281 181.4844,156.1094 Q180.875,155.8906 180.25,155.8906 Q179.4844,155.8906 178.8516,156.2188 Q178.2188,156.5469 177.7266,157.2969 Q177.2344,158.0469 177.2344,159.0781 L177.2344,160.1719 Q177.2344,161.4063 178.125,162.2266 Q179.0156,163.0469 180.6094,163.0469 Q181.5469,163.0469 182.2031,162.7969 Q182.5938,162.6406 183.0156,162.2031 Q183.2813,161.9375 183.4297,161.8594 Q183.5781,161.7813 183.7813,161.7813 Q184.1094,161.7813 184.3672,162.0391 Q184.625,162.2969 184.625,162.6406 Q184.625,162.9844 184.2813,163.3906 Q183.7813,163.9688 182.9844,164.2969 Q181.9063,164.75 180.6094,164.75 Q179.0938,164.75 177.8906,164.125 Q176.9063,163.625 176.2188,162.5547 Q175.5313,161.4844 175.5313,160.2031 L175.5313,159.0469 Q175.5313,157.7188 176.1484,156.5703 Q176.7656,155.4219 177.8594,154.8047 Q178.9531,154.1875 180.1875,154.1875 Q180.9219,154.1875 181.5703,154.3516 Q182.2188,154.5156 182.7656,154.875 Z "/><text fill="#000000" font-family="sans-serif" font-size="12" lengthAdjust="spacingAndGlyphs" textLength="54" x="194" y="163.9102">MenuItem</text><line style="stroke: #A80036; stroke-width: 1.5;" x1="166" x2="250" y1="175" y2="175"/><line style="stroke: #A80036; stroke-width: 1.5;" x1="166" x2="250" y1="183" y2="183"/><!--class android.view.View--><rect fill="#FEFECE" filter="url(#f4zd680r4a6xh)" height="48" id="android.view.View" style="stroke: #A80036; stroke-width: 1.5;" width="58" x="70" y="472.5"/><ellipse cx="85" cy="488.5" fill="#ADD1B2" rx="11" ry="11" style="stroke: #A80036; stroke-width: 1.0;"/><path d="M87.7656,484.375 Q87.9219,484.1563 88.1094,484.0469 Q88.2969,483.9375 88.5156,483.9375 Q88.8906,483.9375 89.125,484.1953 Q89.3594,484.4531 89.3594,485.0625 L89.3594,486.5156 Q89.3594,487.125 89.125,487.3906 Q88.8906,487.6563 88.5156,487.6563 Q88.1719,487.6563 87.9688,487.4531 Q87.7656,487.2656 87.6563,486.75 Q87.6094,486.3906 87.4219,486.2031 Q87.0938,485.8281 86.4844,485.6094 Q85.875,485.3906 85.25,485.3906 Q84.4844,485.3906 83.8516,485.7188 Q83.2188,486.0469 82.7266,486.7969 Q82.2344,487.5469 82.2344,488.5781 L82.2344,489.6719 Q82.2344,490.9063 83.125,491.7266 Q84.0156,492.5469 85.6094,492.5469 Q86.5469,492.5469 87.2031,492.2969 Q87.5938,492.1406 88.0156,491.7031 Q88.2813,491.4375 88.4297,491.3594 Q88.5781,491.2813 88.7813,491.2813 Q89.1094,491.2813 89.3672,491.5391 Q89.625,491.7969 89.625,492.1406 Q89.625,492.4844 89.2813,492.8906 Q88.7813,493.4688 87.9844,493.7969 Q86.9063,494.25 85.6094,494.25 Q84.0938,494.25 82.8906,493.625 Q81.9063,493.125 81.2188,492.0547 Q80.5313,490.9844 80.5313,489.7031 L80.5313,488.5469 Q80.5313,487.2188 81.1484,486.0703 Q81.7656,484.9219 82.8594,484.3047 Q83.9531,483.6875 85.1875,483.6875 Q85.9219,483.6875 86.5703,483.8516 Q87.2188,484.0156 87.7656,484.375 Z "/><text fill="#000000" font-family="sans-serif" font-size="12" lengthAdjust="spacingAndGlyphs" textLength="26" x="99" y="493.4102">View</text><line style="stroke: #A80036; stroke-width: 1.5;" x1="71" x2="127" y1="504.5" y2="504.5"/><line style="stroke: #A80036; stroke-width: 1.5;" x1="71" x2="127" y1="512.5" y2="512.5"/><!--class android.widget.AdapterView--><rect fill="#FEFECE" filter="url(#f4zd680r4a6xh)" height="48" id="android.widget.AdapterView" style="stroke: #A80036; stroke-width: 1.5;" width="100" x="307" y="143"/><ellipse cx="322" cy="159" fill="#ADD1B2" rx="11" ry="11" style="stroke: #A80036; stroke-width: 1.0;"/><path d="M324.7656,154.875 Q324.9219,154.6563 325.1094,154.5469 Q325.2969,154.4375 325.5156,154.4375 Q325.8906,154.4375 326.125,154.6953 Q326.3594,154.9531 326.3594,155.5625 L326.3594,157.0156 Q326.3594,157.625 326.125,157.8906 Q325.8906,158.1563 325.5156,158.1563 Q325.1719,158.1563 324.9688,157.9531 Q324.7656,157.7656 324.6563,157.25 Q324.6094,156.8906 324.4219,156.7031 Q324.0938,156.3281 323.4844,156.1094 Q322.875,155.8906 322.25,155.8906 Q321.4844,155.8906 320.8516,156.2188 Q320.2188,156.5469 319.7266,157.2969 Q319.2344,158.0469 319.2344,159.0781 L319.2344,160.1719 Q319.2344,161.4063 320.125,162.2266 Q321.0156,163.0469 322.6094,163.0469 Q323.5469,163.0469 324.2031,162.7969 Q324.5938,162.6406 325.0156,162.2031 Q325.2813,161.9375 325.4297,161.8594 Q325.5781,161.7813 325.7813,161.7813 Q326.1094,161.7813 326.3672,162.0391 Q326.625,162.2969 326.625,162.6406 Q326.625,162.9844 326.2813,163.3906 Q325.7813,163.9688 324.9844,164.2969 Q323.9063,164.75 322.6094,164.75 Q321.0938,164.75 319.8906,164.125 Q318.9063,163.625 318.2188,162.5547 Q317.5313,161.4844 317.5313,160.2031 L317.5313,159.0469 Q317.5313,157.7188 318.1484,156.5703 Q318.7656,155.4219 319.8594,154.8047 Q320.9531,154.1875 322.1875,154.1875 Q322.9219,154.1875 323.5703,154.3516 Q324.2188,154.5156 324.7656,154.875 Z "/><text fill="#000000" font-family="sans-serif" font-size="12" lengthAdjust="spacingAndGlyphs" textLength="68" x="336" y="163.9102">AdapterView</text><line style="stroke: #A80036; stroke-width: 1.5;" x1="308" x2="406" y1="175" y2="175"/><line style="stroke: #A80036; stroke-width: 1.5;" x1="308" x2="406" y1="183" y2="183"/><!--class android.widget.ArrayAdapter--><rect fill="#FEFECE" filter="url(#f4zd680r4a6xh)" height="48" id="android.widget.ArrayAdapter" style="stroke: #A80036; stroke-width: 1.5;" width="101" x="442.5" y="143"/><ellipse cx="457.5" cy="159" fill="#ADD1B2" rx="11" ry="11" style="stroke: #A80036; stroke-width: 1.0;"/><path d="M460.2656,154.875 Q460.4219,154.6563 460.6094,154.5469 Q460.7969,154.4375 461.0156,154.4375 Q461.3906,154.4375 461.625,154.6953 Q461.8594,154.9531 461.8594,155.5625 L461.8594,157.0156 Q461.8594,157.625 461.625,157.8906 Q461.3906,158.1563 461.0156,158.1563 Q460.6719,158.1563 460.4688,157.9531 Q460.2656,157.7656 460.1563,157.25 Q460.1094,156.8906 459.9219,156.7031 Q459.5938,156.3281 458.9844,156.1094 Q458.375,155.8906 457.75,155.8906 Q456.9844,155.8906 456.3516,156.2188 Q455.7188,156.5469 455.2266,157.2969 Q454.7344,158.0469 454.7344,159.0781 L454.7344,160.1719 Q454.7344,161.4063 455.625,162.2266 Q456.5156,163.0469 458.1094,163.0469 Q459.0469,163.0469 459.7031,162.7969 Q460.0938,162.6406 460.5156,162.2031 Q460.7813,161.9375 460.9297,161.8594 Q461.0781,161.7813 461.2813,161.7813 Q461.6094,161.7813 461.8672,162.0391 Q462.125,162.2969 462.125,162.6406 Q462.125,162.9844 461.7813,163.3906 Q461.2813,163.9688 460.4844,164.2969 Q459.4063,164.75 458.1094,164.75 Q456.5938,164.75 455.3906,164.125 Q454.4063,163.625 453.7188,162.5547 Q453.0313,161.4844 453.0313,160.2031 L453.0313,159.0469 Q453.0313,157.7188 453.6484,156.5703 Q454.2656,155.4219 455.3594,154.8047 Q456.4531,154.1875 457.6875,154.1875 Q458.4219,154.1875 459.0703,154.3516 Q459.7188,154.5156 460.2656,154.875 Z "/><text fill="#000000" font-family="sans-serif" font-size="12" lengthAdjust="spacingAndGlyphs" textLength="69" x="471.5" y="163.9102">ArrayAdapter</text><line style="stroke: #A80036; stroke-width: 1.5;" x1="443.5" x2="542.5" y1="175" y2="175"/><line style="stroke: #A80036; stroke-width: 1.5;" x1="443.5" x2="542.5" y1="183" y2="183"/><!--class android.widget.EditText--><rect fill="#FEFECE" filter="url(#f4zd680r4a6xh)" height="48" id="android.widget.EditText" style="stroke: #A80036; stroke-width: 1.5;" width="75" x="578.5" y="143"/><ellipse cx="593.5" cy="159" fill="#ADD1B2" rx="11" ry="11" style="stroke: #A80036; stroke-width: 1.0;"/><path d="M596.2656,154.875 Q596.4219,154.6563 596.6094,154.5469 Q596.7969,154.4375 597.0156,154.4375 Q597.3906,154.4375 597.625,154.6953 Q597.8594,154.9531 597.8594,155.5625 L597.8594,157.0156 Q597.8594,157.625 597.625,157.8906 Q597.3906,158.1563 597.0156,158.1563 Q596.6719,158.1563 596.4688,157.9531 Q596.2656,157.7656 596.1563,157.25 Q596.1094,156.8906 595.9219,156.7031 Q595.5938,156.3281 594.9844,156.1094 Q594.375,155.8906 593.75,155.8906 Q592.9844,155.8906 592.3516,156.2188 Q591.7188,156.5469 591.2266,157.2969 Q590.7344,158.0469 590.7344,159.0781 L590.7344,160.1719 Q590.7344,161.4063 591.625,162.2266 Q592.5156,163.0469 594.1094,163.0469 Q595.0469,163.0469 595.7031,162.7969 Q596.0938,162.6406 596.5156,162.2031 Q596.7813,161.9375 596.9297,161.8594 Q597.0781,161.7813 597.2813,161.7813 Q597.6094,161.7813 597.8672,162.0391 Q598.125,162.2969 598.125,162.6406 Q598.125,162.9844 597.7813,163.3906 Q597.2813,163.9688 596.4844,164.2969 Q595.4063,164.75 594.1094,164.75 Q592.5938,164.75 591.3906,164.125 Q590.4063,163.625 589.7188,162.5547 Q589.0313,161.4844 589.0313,160.2031 L589.0313,159.0469 Q589.0313,157.7188 589.6484,156.5703 Q590.2656,155.4219 591.3594,154.8047 Q592.4531,154.1875 593.6875,154.1875 Q594.4219,154.1875 595.0703,154.3516 Q595.7188,154.5156 596.2656,154.875 Z "/><text fill="#000000" font-family="sans-serif" font-size="12" lengthAdjust="spacingAndGlyphs" textLength="43" x="607.5" y="163.9102">EditText</text><line style="stroke: #A80036; stroke-width: 1.5;" x1="579.5" x2="652.5" y1="175" y2="175"/><line style="stroke: #A80036; stroke-width: 1.5;" x1="579.5" x2="652.5" y1="183" y2="183"/><!--class android.widget.ListView--><rect fill="#FEFECE" filter="url(#f4zd680r4a6xh)" height="48" id="android.widget.ListView" style="stroke: #A80036; stroke-width: 1.5;" width="78" x="318" y="472.5"/><ellipse cx="333" cy="488.5" fill="#ADD1B2" rx="11" ry="11" style="stroke: #A80036; stroke-width: 1.0;"/><path d="M335.7656,484.375 Q335.9219,484.1563 336.1094,484.0469 Q336.2969,483.9375 336.5156,483.9375 Q336.8906,483.9375 337.125,484.1953 Q337.3594,484.4531 337.3594,485.0625 L337.3594,486.5156 Q337.3594,487.125 337.125,487.3906 Q336.8906,487.6563 336.5156,487.6563 Q336.1719,487.6563 335.9688,487.4531 Q335.7656,487.2656 335.6563,486.75 Q335.6094,486.3906 335.4219,486.2031 Q335.0938,485.8281 334.4844,485.6094 Q333.875,485.3906 333.25,485.3906 Q332.4844,485.3906 331.8516,485.7188 Q331.2188,486.0469 330.7266,486.7969 Q330.2344,487.5469 330.2344,488.5781 L330.2344,489.6719 Q330.2344,490.9063 331.125,491.7266 Q332.0156,492.5469 333.6094,492.5469 Q334.5469,492.5469 335.2031,492.2969 Q335.5938,492.1406 336.0156,491.7031 Q336.2813,491.4375 336.4297,491.3594 Q336.5781,491.2813 336.7813,491.2813 Q337.1094,491.2813 337.3672,491.5391 Q337.625,491.7969 337.625,492.1406 Q337.625,492.4844 337.2813,492.8906 Q336.7813,493.4688 335.9844,493.7969 Q334.9063,494.25 333.6094,494.25 Q332.0938,494.25 330.8906,493.625 Q329.9063,493.125 329.2188,492.0547 Q328.5313,490.9844 328.5313,489.7031 L328.5313,488.5469 Q328.5313,487.2188 329.1484,486.0703 Q329.7656,484.9219 330.8594,484.3047 Q331.9531,483.6875 333.1875,483.6875 Q333.9219,483.6875 334.5703,483.8516 Q335.2188,484.0156 335.7656,484.375 Z "/><text fill="#000000" font-family="sans-serif" font-size="12" lengthAdjust="spacingAndGlyphs" textLength="46" x="347" y="493.4102">ListView</text><line style="stroke: #A80036; stroke-width: 1.5;" x1="319" x2="395" y1="504.5" y2="504.5"/><line style="stroke: #A80036; stroke-width: 1.5;" x1="319" x2="395" y1="512.5" y2="512.5"/><!--class android.widget.ProgressBar--><rect fill="#FEFECE" filter="url(#f4zd680r4a6xh)" height="48" id="android.widget.ProgressBar" style="stroke: #A80036; stroke-width: 1.5;" width="102" x="431" y="472.5"/><ellipse cx="446" cy="488.5" fill="#ADD1B2" rx="11" ry="11" style="stroke: #A80036; stroke-width: 1.0;"/><path d="M448.7656,484.375 Q448.9219,484.1563 449.1094,484.0469 Q449.2969,483.9375 449.5156,483.9375 Q449.8906,483.9375 450.125,484.1953 Q450.3594,484.4531 450.3594,485.0625 L450.3594,486.5156 Q450.3594,487.125 450.125,487.3906 Q449.8906,487.6563 449.5156,487.6563 Q449.1719,487.6563 448.9688,487.4531 Q448.7656,487.2656 448.6563,486.75 Q448.6094,486.3906 448.4219,486.2031 Q448.0938,485.8281 447.4844,485.6094 Q446.875,485.3906 446.25,485.3906 Q445.4844,485.3906 444.8516,485.7188 Q444.2188,486.0469 443.7266,486.7969 Q443.2344,487.5469 443.2344,488.5781 L443.2344,489.6719 Q443.2344,490.9063 444.125,491.7266 Q445.0156,492.5469 446.6094,492.5469 Q447.5469,492.5469 448.2031,492.2969 Q448.5938,492.1406 449.0156,491.7031 Q449.2813,491.4375 449.4297,491.3594 Q449.5781,491.2813 449.7813,491.2813 Q450.1094,491.2813 450.3672,491.5391 Q450.625,491.7969 450.625,492.1406 Q450.625,492.4844 450.2813,492.8906 Q449.7813,493.4688 448.9844,493.7969 Q447.9063,494.25 446.6094,494.25 Q445.0938,494.25 443.8906,493.625 Q442.9063,493.125 442.2188,492.0547 Q441.5313,490.9844 441.5313,489.7031 L441.5313,488.5469 Q441.5313,487.2188 442.1484,486.0703 Q442.7656,484.9219 443.8594,484.3047 Q444.9531,483.6875 446.1875,483.6875 Q446.9219,483.6875 447.5703,483.8516 Q448.2188,484.0156 448.7656,484.375 Z "/><text fill="#000000" font-family="sans-serif" font-size="12" lengthAdjust="spacingAndGlyphs" textLength="70" x="460" y="493.4102">ProgressBar</text><line style="stroke: #A80036; stroke-width: 1.5;" x1="432" x2="532" y1="504.5" y2="504.5"/><line style="stroke: #A80036; stroke-width: 1.5;" x1="432" x2="532" y1="512.5" y2="512.5"/><!--class android.widget.Toast--><rect fill="#FEFECE" filter="url(#f4zd680r4a6xh)" height="48" id="android.widget.Toast" style="stroke: #A80036; stroke-width: 1.5;" width="63" x="568.5" y="472.5"/><ellipse cx="583.5" cy="488.5" fill="#ADD1B2" rx="11" ry="11" style="stroke: #A80036; stroke-width: 1.0;"/><path d="M586.2656,484.375 Q586.4219,484.1563 586.6094,484.0469 Q586.7969,483.9375 587.0156,483.9375 Q587.3906,483.9375 587.625,484.1953 Q587.8594,484.4531 587.8594,485.0625 L587.8594,486.5156 Q587.8594,487.125 587.625,487.3906 Q587.3906,487.6563 587.0156,487.6563 Q586.6719,487.6563 586.4688,487.4531 Q586.2656,487.2656 586.1563,486.75 Q586.1094,486.3906 585.9219,486.2031 Q585.5938,485.8281 584.9844,485.6094 Q584.375,485.3906 583.75,485.3906 Q582.9844,485.3906 582.3516,485.7188 Q581.7188,486.0469 581.2266,486.7969 Q580.7344,487.5469 580.7344,488.5781 L580.7344,489.6719 Q580.7344,490.9063 581.625,491.7266 Q582.5156,492.5469 584.1094,492.5469 Q585.0469,492.5469 585.7031,492.2969 Q586.0938,492.1406 586.5156,491.7031 Q586.7813,491.4375 586.9297,491.3594 Q587.0781,491.2813 587.2813,491.2813 Q587.6094,491.2813 587.8672,491.5391 Q588.125,491.7969 588.125,492.1406 Q588.125,492.4844 587.7813,492.8906 Q587.2813,493.4688 586.4844,493.7969 Q585.4063,494.25 584.1094,494.25 Q582.5938,494.25 581.3906,493.625 Q580.4063,493.125 579.7188,492.0547 Q579.0313,490.9844 579.0313,489.7031 L579.0313,488.5469 Q579.0313,487.2188 579.6484,486.0703 Q580.2656,484.9219 581.3594,484.3047 Q582.4531,483.6875 583.6875,483.6875 Q584.4219,483.6875 585.0703,483.8516 Q585.7188,484.0156 586.2656,484.375 Z "/><text fill="#000000" font-family="sans-serif" font-size="12" lengthAdjust="spacingAndGlyphs" textLength="31" x="597.5" y="493.4102">Toast</text><line style="stroke: #A80036; stroke-width: 1.5;" x1="569.5" x2="630.5" y1="504.5" y2="504.5"/><line style="stroke: #A80036; stroke-width: 1.5;" x1="569.5" x2="630.5" y1="512.5" y2="512.5"/><!--class com.antonioleiva.mvpexample.app.Login.LoginActivity--><rect fill="#FEFECE" filter="url(#f4zd680r4a6xh)" height="214.0313" id="com.antonioleiva.mvpexample.app.Login.LoginActivity" style="stroke: #A80036; stroke-width: 1.5;" width="233" x="1132.5" y="60"/><ellipse cx="1211.75" cy="76" fill="#ADD1B2" rx="11" ry="11" style="stroke: #A80036; stroke-width: 1.0;"/><path d="M1214.5156,71.875 Q1214.6719,71.6563 1214.8594,71.5469 Q1215.0469,71.4375 1215.2656,71.4375 Q1215.6406,71.4375 1215.875,71.6953 Q1216.1094,71.9531 1216.1094,72.5625 L1216.1094,74.0156 Q1216.1094,74.625 1215.875,74.8906 Q1215.6406,75.1563 1215.2656,75.1563 Q1214.9219,75.1563 1214.7188,74.9531 Q1214.5156,74.7656 1214.4063,74.25 Q1214.3594,73.8906 1214.1719,73.7031 Q1213.8438,73.3281 1213.2344,73.1094 Q1212.625,72.8906 1212,72.8906 Q1211.2344,72.8906 1210.6016,73.2188 Q1209.9688,73.5469 1209.4766,74.2969 Q1208.9844,75.0469 1208.9844,76.0781 L1208.9844,77.1719 Q1208.9844,78.4063 1209.875,79.2266 Q1210.7656,80.0469 1212.3594,80.0469 Q1213.2969,80.0469 1213.9531,79.7969 Q1214.3438,79.6406 1214.7656,79.2031 Q1215.0313,78.9375 1215.1797,78.8594 Q1215.3281,78.7813 1215.5313,78.7813 Q1215.8594,78.7813 1216.1172,79.0391 Q1216.375,79.2969 1216.375,79.6406 Q1216.375,79.9844 1216.0313,80.3906 Q1215.5313,80.9688 1214.7344,81.2969 Q1213.6563,81.75 1212.3594,81.75 Q1210.8438,81.75 1209.6406,81.125 Q1208.6563,80.625 1207.9688,79.5547 Q1207.2813,78.4844 1207.2813,77.2031 L1207.2813,76.0469 Q1207.2813,74.7188 1207.8984,73.5703 Q1208.5156,72.4219 1209.6094,71.8047 Q1210.7031,71.1875 1211.9375,71.1875 Q1212.6719,71.1875 1213.3203,71.3516 Q1213.9688,71.5156 1214.5156,71.875 Z "/><text fill="#000000" font-family="sans-serif" font-size="12" lengthAdjust="spacingAndGlyphs" textLength="66" x="1232.25" y="80.9102">LoginActivity</text><line style="stroke: #A80036; stroke-width: 1.5;" x1="1133.5" x2="1364.5" y1="92" y2="92"/><rect fill="none" height="6" style="stroke: #C82930; stroke-width: 1.0;" width="6" x="1140.5" y="101.418"/><text fill="#000000" font-family="sans-serif" font-size="11" lengthAdjust="spacingAndGlyphs" textLength="128" x="1152.5" y="107.4189">ProgressBar progressBar;</text><rect fill="none" height="6" style="stroke: #C82930; stroke-width: 1.0;" width="6" x="1140.5" y="115.2539"/><text fill="#000000" font-family="sans-serif" font-size="11" lengthAdjust="spacingAndGlyphs" textLength="92" x="1152.5" y="121.2549">EditText username;</text><rect fill="none" height="6" style="stroke: #C82930; stroke-width: 1.0;" width="6" x="1140.5" y="129.0898"/><text fill="#000000" font-family="sans-serif" font-size="11" lengthAdjust="spacingAndGlyphs" textLength="94" x="1152.5" y="135.0908">EditText password;</text><rect fill="none" height="6" style="stroke: #C82930; stroke-width: 1.0;" width="6" x="1140.5" y="142.9258"/><text fill="#000000" font-family="sans-serif" font-size="11" lengthAdjust="spacingAndGlyphs" textLength="126" x="1152.5" y="148.9268">LoginPresenter presenter;</text><line style="stroke: #A80036; stroke-width: 1.5;" x1="1133.5" x2="1364.5" y1="155.3438" y2="155.3438"/><polygon fill="#FFFF44" points="1143.5,162.7617,1147.5,166.7617,1143.5,170.7617,1139.5,166.7617" style="stroke: #B38D22; stroke-width: 1.0;"/><text fill="#000000" font-family="sans-serif" font-size="11" lengthAdjust="spacingAndGlyphs" textLength="207" x="1152.5" y="170.7627">void onCreate(Bundle savedInstanceState)</text><polygon fill="#FFFF44" points="1143.5,176.5977,1147.5,180.5977,1143.5,184.5977,1139.5,180.5977" style="stroke: #B38D22; stroke-width: 1.0;"/><text fill="#000000" font-family="sans-serif" font-size="11" lengthAdjust="spacingAndGlyphs" textLength="81" x="1152.5" y="184.5986">void onDestroy()</text><ellipse cx="1143.5" cy="195.4336" fill="#84BE84" rx="3" ry="3" style="stroke: #038048; stroke-width: 1.0;"/><text fill="#000000" font-family="sans-serif" font-size="11" lengthAdjust="spacingAndGlyphs" textLength="103" x="1152.5" y="198.4346">void showProgress()</text><ellipse cx="1143.5" cy="209.2695" fill="#84BE84" rx="3" ry="3" style="stroke: #038048; stroke-width: 1.0;"/><text fill="#000000" font-family="sans-serif" font-size="11" lengthAdjust="spacingAndGlyphs" textLength="95" x="1152.5" y="212.2705">void hideProgress()</text><ellipse cx="1143.5" cy="223.1055" fill="#84BE84" rx="3" ry="3" style="stroke: #038048; stroke-width: 1.0;"/><text fill="#000000" font-family="sans-serif" font-size="11" lengthAdjust="spacingAndGlyphs" textLength="119" x="1152.5" y="226.1064">void setUsernameError()</text><ellipse cx="1143.5" cy="236.9414" fill="#84BE84" rx="3" ry="3" style="stroke: #038048; stroke-width: 1.0;"/><text fill="#000000" font-family="sans-serif" font-size="11" lengthAdjust="spacingAndGlyphs" textLength="120" x="1152.5" y="239.9424">void setPasswordError()</text><ellipse cx="1143.5" cy="250.7773" fill="#84BE84" rx="3" ry="3" style="stroke: #038048; stroke-width: 1.0;"/><text fill="#000000" font-family="sans-serif" font-size="11" lengthAdjust="spacingAndGlyphs" textLength="111" x="1152.5" y="253.7783">void navigateToHome()</text><ellipse cx="1143.5" cy="264.6133" fill="#84BE84" rx="3" ry="3" style="stroke: #038048; stroke-width: 1.0;"/><text fill="#000000" font-family="sans-serif" font-size="11" lengthAdjust="spacingAndGlyphs" textLength="100" x="1152.5" y="267.6143">void onClick(View v)</text><!--class com.antonioleiva.mvpexample.app.Login.LoginInteractor--><rect fill="#FEFECE" filter="url(#f4zd680r4a6xh)" height="324.7188" id="com.antonioleiva.mvpexample.app.Login.LoginInteractor" style="stroke: #A80036; stroke-width: 1.5;" width="380" x="710" y="334"/><ellipse cx="854.25" cy="350" fill="#B4A7E5" rx="11" ry="11" style="stroke: #A80036; stroke-width: 1.0;"/><path d="M855.2031,346.6406 L855.2031,353.2969 L856.9219,353.2969 Q857.5313,353.2969 857.7969,353.5313 Q858.0625,353.7656 858.0625,354.1563 Q858.0625,354.5313 857.7969,354.7656 Q857.5313,355 856.9219,355 L851.7813,355 Q851.1719,355 850.9063,354.7656 Q850.6406,354.5313 850.6406,354.1406 Q850.6406,353.7656 850.9063,353.5313 Q851.1719,353.2969 851.7813,353.2969 L853.5,353.2969 L853.5,346.6406 L851.7813,346.6406 Q851.1719,346.6406 850.9063,346.4063 Q850.6406,346.1719 850.6406,345.7813 Q850.6406,345.4063 850.9063,345.1719 Q851.1719,344.9375 851.7813,344.9375 L856.9219,344.9375 Q857.5313,344.9375 857.7969,345.1719 Q858.0625,345.4063 858.0625,345.7813 Q858.0625,346.1719 857.7969,346.4063 Q857.5313,346.6406 856.9219,346.6406 L855.2031,346.6406 Z "/><text fill="#000000" font-family="sans-serif" font-size="12" font-style="italic" lengthAdjust="spacingAndGlyphs" textLength="83" x="874.75" y="354.9102">LoginInteractor</text><line style="stroke: #A80036; stroke-width: 1.5;" x1="711" x2="1089" y1="366" y2="366"/><text fill="#000000" font-family="sans-serif" font-size="11" lengthAdjust="spacingAndGlyphs" textLength="22" x="730" y="381.4189">}Impl</text><text fill="#000000" font-family="sans-serif" font-size="11" lengthAdjust="spacingAndGlyphs" textLength="305" x="730" y="395.2549">class com.antonioleiva.mvpexample.app.Login.LoginPresenter {</text><text fill="#000000" font-family="sans-serif" font-size="11" lengthAdjust="spacingAndGlyphs" textLength="22" x="730" y="409.0908">}Impl</text><text fill="#000000" font-family="sans-serif" font-size="11" lengthAdjust="spacingAndGlyphs" textLength="203" x="730" y="422.9268">class com.antonioleiva.mvpexample.app.R</text><text fill="#000000" font-family="sans-serif" font-size="11" lengthAdjust="spacingAndGlyphs" textLength="319" x="730" y="436.7627">class com.antonioleiva.mvpexample.app.main.FindItemsInteractor {</text><text fill="#000000" font-family="sans-serif" font-size="11" lengthAdjust="spacingAndGlyphs" textLength="22" x="730" y="450.5986">}Impl</text><text fill="#000000" font-family="sans-serif" font-size="11" lengthAdjust="spacingAndGlyphs" textLength="286" x="730" y="464.4346">class com.antonioleiva.mvpexample.app.main.MainActivity {</text><rect fill="none" height="6" style="stroke: #C82930; stroke-width: 1.0;" width="6" x="718" y="472.2695"/><text fill="#000000" font-family="sans-serif" font-size="11" lengthAdjust="spacingAndGlyphs" textLength="88" x="730" y="478.2705">ListView listView;</text><rect fill="none" height="6" style="stroke: #C82930; stroke-width: 1.0;" width="6" x="718" y="486.1055"/><text fill="#000000" font-family="sans-serif" font-size="11" lengthAdjust="spacingAndGlyphs" textLength="128" x="730" y="492.1064">ProgressBar progressBar;</text><rect fill="none" height="6" style="stroke: #C82930; stroke-width: 1.0;" width="6" x="718" y="499.9414"/><text fill="#000000" font-family="sans-serif" font-size="11" lengthAdjust="spacingAndGlyphs" textLength="122" x="730" y="505.9424">MainPresenter presenter;</text><line style="stroke: #A80036; stroke-width: 1.5;" x1="711" x2="1089" y1="512.3594" y2="512.3594"/><polygon fill="#FFFF44" points="721,519.7773,725,523.7773,721,527.7773,717,523.7773" style="stroke: #B38D22; stroke-width: 1.0;"/><text fill="#000000" font-family="sans-serif" font-size="11" lengthAdjust="spacingAndGlyphs" textLength="207" x="730" y="527.7783">void onCreate(Bundle savedInstanceState)</text><polygon fill="#FFFF44" points="721,533.6133,725,537.6133,721,541.6133,717,537.6133" style="stroke: #B38D22; stroke-width: 1.0;"/><text fill="#000000" font-family="sans-serif" font-size="11" lengthAdjust="spacingAndGlyphs" textLength="82" x="730" y="541.6143">void onResume()</text><ellipse cx="721" cy="552.4492" fill="#84BE84" rx="3" ry="3" style="stroke: #038048; stroke-width: 1.0;"/><text fill="#000000" font-family="sans-serif" font-size="11" lengthAdjust="spacingAndGlyphs" textLength="211" x="730" y="555.4502">boolean onCreateOptionsMenu(Menu menu)</text><ellipse cx="721" cy="566.2852" fill="#84BE84" rx="3" ry="3" style="stroke: #038048; stroke-width: 1.0;"/><text fill="#000000" font-family="sans-serif" font-size="11" lengthAdjust="spacingAndGlyphs" textLength="226" x="730" y="569.2861">boolean onOptionsItemSelected(MenuItem item)</text><polygon fill="#FFFF44" points="721,575.1211,725,579.1211,721,583.1211,717,579.1211" style="stroke: #B38D22; stroke-width: 1.0;"/><text fill="#000000" font-family="sans-serif" font-size="11" lengthAdjust="spacingAndGlyphs" textLength="81" x="730" y="583.1221">void onDestroy()</text><ellipse cx="721" cy="593.957" fill="#84BE84" rx="3" ry="3" style="stroke: #038048; stroke-width: 1.0;"/><text fill="#000000" font-family="sans-serif" font-size="11" lengthAdjust="spacingAndGlyphs" textLength="103" x="730" y="596.958">void showProgress()</text><ellipse cx="721" cy="607.793" fill="#84BE84" rx="3" ry="3" style="stroke: #038048; stroke-width: 1.0;"/><text fill="#000000" font-family="sans-serif" font-size="11" lengthAdjust="spacingAndGlyphs" textLength="95" x="730" y="610.7939">void hideProgress()</text><ellipse cx="721" cy="621.6289" fill="#84BE84" rx="3" ry="3" style="stroke: #038048; stroke-width: 1.0;"/><text fill="#000000" font-family="sans-serif" font-size="11" lengthAdjust="spacingAndGlyphs" textLength="156" x="730" y="624.6299">void setItems(List&lt;String&gt; items)</text><ellipse cx="721" cy="635.4648" fill="#84BE84" rx="3" ry="3" style="stroke: #038048; stroke-width: 1.0;"/><text fill="#000000" font-family="sans-serif" font-size="11" lengthAdjust="spacingAndGlyphs" textLength="178" x="730" y="638.4658">void showMessage(String message)</text><ellipse cx="721" cy="649.3008" fill="#84BE84" rx="3" ry="3" style="stroke: #038048; stroke-width: 1.0;"/><text fill="#000000" font-family="sans-serif" font-size="11" lengthAdjust="spacingAndGlyphs" textLength="354" x="730" y="652.3018">void onItemClick(AdapterView&lt;?&gt; parent, View view, int position, long id)</text><!--class com.antonioleiva.mvpexample.app.Login.LoginPresenter--><rect fill="#FEFECE" filter="url(#f4zd680r4a6xh)" height="48" id="com.antonioleiva.mvpexample.app.Login.LoginPresenter" style="stroke: #A80036; stroke-width: 1.5;" width="116" x="1125" y="472.5"/><ellipse cx="1140" cy="488.5" fill="#B4A7E5" rx="11" ry="11" style="stroke: #A80036; stroke-width: 1.0;"/><path d="M1140.9531,485.1406 L1140.9531,491.7969 L1142.6719,491.7969 Q1143.2813,491.7969 1143.5469,492.0313 Q1143.8125,492.2656 1143.8125,492.6563 Q1143.8125,493.0313 1143.5469,493.2656 Q1143.2813,493.5 1142.6719,493.5 L1137.5313,493.5 Q1136.9219,493.5 1136.6563,493.2656 Q1136.3906,493.0313 1136.3906,492.6406 Q1136.3906,492.2656 1136.6563,492.0313 Q1136.9219,491.7969 1137.5313,491.7969 L1139.25,491.7969 L1139.25,485.1406 L1137.5313,485.1406 Q1136.9219,485.1406 1136.6563,484.9063 Q1136.3906,484.6719 1136.3906,484.2813 Q1136.3906,483.9063 1136.6563,483.6719 Q1136.9219,483.4375 1137.5313,483.4375 L1142.6719,483.4375 Q1143.2813,483.4375 1143.5469,483.6719 Q1143.8125,483.9063 1143.8125,484.2813 Q1143.8125,484.6719 1143.5469,484.9063 Q1143.2813,485.1406 1142.6719,485.1406 L1140.9531,485.1406 Z "/><text fill="#000000" font-family="sans-serif" font-size="12" font-style="italic" lengthAdjust="spacingAndGlyphs" textLength="84" x="1154" y="493.4102">LoginPresenter</text><line style="stroke: #A80036; stroke-width: 1.5;" x1="1126" x2="1240" y1="504.5" y2="504.5"/><line style="stroke: #A80036; stroke-width: 1.5;" x1="1126" x2="1240" y1="512.5" y2="512.5"/><!--class com.antonioleiva.mvpexample.app.Login.LoginView--><rect fill="#FEFECE" filter="url(#f4zd680r4a6xh)" height="48" id="com.antonioleiva.mvpexample.app.Login.LoginView" style="stroke: #A80036; stroke-width: 1.5;" width="89" x="1276.5" y="472.5"/><ellipse cx="1291.5" cy="488.5" fill="#B4A7E5" rx="11" ry="11" style="stroke: #A80036; stroke-width: 1.0;"/><path d="M1292.4531,485.1406 L1292.4531,491.7969 L1294.1719,491.7969 Q1294.7813,491.7969 1295.0469,492.0313 Q1295.3125,492.2656 1295.3125,492.6563 Q1295.3125,493.0313 1295.0469,493.2656 Q1294.7813,493.5 1294.1719,493.5 L1289.0313,493.5 Q1288.4219,493.5 1288.1563,493.2656 Q1287.8906,493.0313 1287.8906,492.6406 Q1287.8906,492.2656 1288.1563,492.0313 Q1288.4219,491.7969 1289.0313,491.7969 L1290.75,491.7969 L1290.75,485.1406 L1289.0313,485.1406 Q1288.4219,485.1406 1288.1563,484.9063 Q1287.8906,484.6719 1287.8906,484.2813 Q1287.8906,483.9063 1288.1563,483.6719 Q1288.4219,483.4375 1289.0313,483.4375 L1294.1719,483.4375 Q1294.7813,483.4375 1295.0469,483.6719 Q1295.3125,483.9063 1295.3125,484.2813 Q1295.3125,484.6719 1295.0469,484.9063 Q1294.7813,485.1406 1294.1719,485.1406 L1292.4531,485.1406 Z "/><text fill="#000000" font-family="sans-serif" font-size="12" font-style="italic" lengthAdjust="spacingAndGlyphs" textLength="57" x="1305.5" y="493.4102">LoginView</text><line style="stroke: #A80036; stroke-width: 1.5;" x1="1277.5" x2="1364.5" y1="504.5" y2="504.5"/><line style="stroke: #A80036; stroke-width: 1.5;" x1="1277.5" x2="1364.5" y1="512.5" y2="512.5"/><!--class com.antonioleiva.mvpexample.app.Login.LoginInteractorImpl--><rect fill="#FEFECE" filter="url(#f4zd680r4a6xh)" height="48" id="com.antonioleiva.mvpexample.app.Login.LoginInteractorImpl" style="stroke: #A80036; stroke-width: 1.5;" width="138" x="783" y="143"/><ellipse cx="798" cy="159" fill="#ADD1B2" rx="11" ry="11" style="stroke: #A80036; stroke-width: 1.0;"/><path d="M800.7656,154.875 Q800.9219,154.6563 801.1094,154.5469 Q801.2969,154.4375 801.5156,154.4375 Q801.8906,154.4375 802.125,154.6953 Q802.3594,154.9531 802.3594,155.5625 L802.3594,157.0156 Q802.3594,157.625 802.125,157.8906 Q801.8906,158.1563 801.5156,158.1563 Q801.1719,158.1563 800.9688,157.9531 Q800.7656,157.7656 800.6563,157.25 Q800.6094,156.8906 800.4219,156.7031 Q800.0938,156.3281 799.4844,156.1094 Q798.875,155.8906 798.25,155.8906 Q797.4844,155.8906 796.8516,156.2188 Q796.2188,156.5469 795.7266,157.2969 Q795.2344,158.0469 795.2344,159.0781 L795.2344,160.1719 Q795.2344,161.4063 796.125,162.2266 Q797.0156,163.0469 798.6094,163.0469 Q799.5469,163.0469 800.2031,162.7969 Q800.5938,162.6406 801.0156,162.2031 Q801.2813,161.9375 801.4297,161.8594 Q801.5781,161.7813 801.7813,161.7813 Q802.1094,161.7813 802.3672,162.0391 Q802.625,162.2969 802.625,162.6406 Q802.625,162.9844 802.2813,163.3906 Q801.7813,163.9688 800.9844,164.2969 Q799.9063,164.75 798.6094,164.75 Q797.0938,164.75 795.8906,164.125 Q794.9063,163.625 794.2188,162.5547 Q793.5313,161.4844 793.5313,160.2031 L793.5313,159.0469 Q793.5313,157.7188 794.1484,156.5703 Q794.7656,155.4219 795.8594,154.8047 Q796.9531,154.1875 798.1875,154.1875 Q798.9219,154.1875 799.5703,154.3516 Q800.2188,154.5156 800.7656,154.875 Z "/><text fill="#000000" font-family="sans-serif" font-size="12" lengthAdjust="spacingAndGlyphs" textLength="106" x="812" y="163.9102">LoginInteractorImpl</text><line style="stroke: #A80036; stroke-width: 1.5;" x1="784" x2="920" y1="175" y2="175"/><line style="stroke: #A80036; stroke-width: 1.5;" x1="784" x2="920" y1="183" y2="183"/><!--class com.antonioleiva.mvpexample.app.Login.LoginPresenterImpl--><rect fill="#FEFECE" filter="url(#f4zd680r4a6xh)" height="48" id="com.antonioleiva.mvpexample.app.Login.LoginPresenterImpl" style="stroke: #A80036; stroke-width: 1.5;" width="141" x="956.5" y="143"/><ellipse cx="971.5" cy="159" fill="#ADD1B2" rx="11" ry="11" style="stroke: #A80036; stroke-width: 1.0;"/><path d="M974.2656,154.875 Q974.4219,154.6563 974.6094,154.5469 Q974.7969,154.4375 975.0156,154.4375 Q975.3906,154.4375 975.625,154.6953 Q975.8594,154.9531 975.8594,155.5625 L975.8594,157.0156 Q975.8594,157.625 975.625,157.8906 Q975.3906,158.1563 975.0156,158.1563 Q974.6719,158.1563 974.4688,157.9531 Q974.2656,157.7656 974.1563,157.25 Q974.1094,156.8906 973.9219,156.7031 Q973.5938,156.3281 972.9844,156.1094 Q972.375,155.8906 971.75,155.8906 Q970.9844,155.8906 970.3516,156.2188 Q969.7188,156.5469 969.2266,157.2969 Q968.7344,158.0469 968.7344,159.0781 L968.7344,160.1719 Q968.7344,161.4063 969.625,162.2266 Q970.5156,163.0469 972.1094,163.0469 Q973.0469,163.0469 973.7031,162.7969 Q974.0938,162.6406 974.5156,162.2031 Q974.7813,161.9375 974.9297,161.8594 Q975.0781,161.7813 975.2813,161.7813 Q975.6094,161.7813 975.8672,162.0391 Q976.125,162.2969 976.125,162.6406 Q976.125,162.9844 975.7813,163.3906 Q975.2813,163.9688 974.4844,164.2969 Q973.4063,164.75 972.1094,164.75 Q970.5938,164.75 969.3906,164.125 Q968.4063,163.625 967.7188,162.5547 Q967.0313,161.4844 967.0313,160.2031 L967.0313,159.0469 Q967.0313,157.7188 967.6484,156.5703 Q968.2656,155.4219 969.3594,154.8047 Q970.4531,154.1875 971.6875,154.1875 Q972.4219,154.1875 973.0703,154.3516 Q973.7188,154.5156 974.2656,154.875 Z "/><text fill="#000000" font-family="sans-serif" font-size="12" lengthAdjust="spacingAndGlyphs" textLength="109" x="985.5" y="163.9102">LoginPresenterImpl</text><line style="stroke: #A80036; stroke-width: 1.5;" x1="957.5" x2="1096.5" y1="175" y2="175"/><line style="stroke: #A80036; stroke-width: 1.5;" x1="957.5" x2="1096.5" y1="183" y2="183"/><!--class com.antonioleiva.mvpexample.app.main.MainPresenter--><rect fill="#FEFECE" filter="url(#f4zd680r4a6xh)" height="172.5234" id="com.antonioleiva.mvpexample.app.main.MainPresenter" style="stroke: #A80036; stroke-width: 1.5;" width="344" x="2242" y="410"/><ellipse cx="2370.25" cy="426" fill="#B4A7E5" rx="11" ry="11" style="stroke: #A80036; stroke-width: 1.0;"/><path d="M2371.2031,422.6406 L2371.2031,429.2969 L2372.9219,429.2969 Q2373.5313,429.2969 2373.7969,429.5313 Q2374.0625,429.7656 2374.0625,430.1563 Q2374.0625,430.5313 2373.7969,430.7656 Q2373.5313,431 2372.9219,431 L2367.7813,431 Q2367.1719,431 2366.9063,430.7656 Q2366.6406,430.5313 2366.6406,430.1406 Q2366.6406,429.7656 2366.9063,429.5313 Q2367.1719,429.2969 2367.7813,429.2969 L2369.5,429.2969 L2369.5,422.6406 L2367.7813,422.6406 Q2367.1719,422.6406 2366.9063,422.4063 Q2366.6406,422.1719 2366.6406,421.7813 Q2366.6406,421.4063 2366.9063,421.1719 Q2367.1719,420.9375 2367.7813,420.9375 L2372.9219,420.9375 Q2373.5313,420.9375 2373.7969,421.1719 Q2374.0625,421.4063 2374.0625,421.7813 Q2374.0625,422.1719 2373.7969,422.4063 Q2373.5313,422.6406 2372.9219,422.6406 L2371.2031,422.6406 Z "/><text fill="#000000" font-family="sans-serif" font-size="12" font-style="italic" lengthAdjust="spacingAndGlyphs" textLength="79" x="2390.75" y="430.9102">MainPresenter</text><line style="stroke: #A80036; stroke-width: 1.5;" x1="2243" x2="2585" y1="442" y2="442"/><text fill="#000000" font-family="sans-serif" font-size="11" lengthAdjust="spacingAndGlyphs" textLength="22" x="2262" y="457.4189">}Impl</text><text fill="#000000" font-family="sans-serif" font-size="11" lengthAdjust="spacingAndGlyphs" textLength="318" x="2262" y="471.2549">class com.antonioleiva.mvpexample.app.main.MainPresenterTest {</text><rect fill="none" height="6" style="stroke: #C82930; stroke-width: 1.0;" width="6" x="2250" y="479.0898"/><text fill="#000000" font-family="sans-serif" font-size="11" lengthAdjust="spacingAndGlyphs" textLength="140" x="2262" y="485.0908">MainPresenterImpl presenter;</text><line style="stroke: #A80036; stroke-width: 1.5;" x1="2243" x2="2585" y1="491.5078" y2="491.5078"/><ellipse cx="2253" cy="503.9258" fill="#84BE84" rx="3" ry="3" style="stroke: #038048; stroke-width: 1.0;"/><text fill="#000000" font-family="sans-serif" font-size="11" lengthAdjust="spacingAndGlyphs" textLength="59" x="2262" y="506.9268">void setUp()</text><ellipse cx="2253" cy="517.7617" fill="#84BE84" rx="3" ry="3" style="stroke: #038048; stroke-width: 1.0;"/><text fill="#000000" font-family="sans-serif" font-size="11" lengthAdjust="spacingAndGlyphs" textLength="198" x="2262" y="520.7627">void checkIfShowsProgressOnResume()</text><ellipse cx="2253" cy="531.5977" fill="#84BE84" rx="3" ry="3" style="stroke: #038048; stroke-width: 1.0;"/><text fill="#000000" font-family="sans-serif" font-size="11" lengthAdjust="spacingAndGlyphs" textLength="200" x="2262" y="534.5986">void checkIfShowsMessageOnItemClick()</text><ellipse cx="2253" cy="545.4336" fill="#84BE84" rx="3" ry="3" style="stroke: #038048; stroke-width: 1.0;"/><text fill="#000000" font-family="sans-serif" font-size="11" lengthAdjust="spacingAndGlyphs" textLength="189" x="2262" y="548.4346">void checkIfRightMessageIsDisplayed()</text><ellipse cx="2253" cy="559.2695" fill="#84BE84" rx="3" ry="3" style="stroke: #038048; stroke-width: 1.0;"/><text fill="#000000" font-family="sans-serif" font-size="11" lengthAdjust="spacingAndGlyphs" textLength="197" x="2262" y="562.2705">void checkIfViewIsReleasedOnDestroy()</text><ellipse cx="2253" cy="573.1055" fill="#84BE84" rx="3" ry="3" style="stroke: #038048; stroke-width: 1.0;"/><text fill="#000000" font-family="sans-serif" font-size="11" lengthAdjust="spacingAndGlyphs" textLength="183" x="2262" y="576.1064">void checkIfItemsArePassedToView()</text><!--class com.antonioleiva.mvpexample.app.main.FindItemsInteractor--><rect fill="#FEFECE" filter="url(#f4zd680r4a6xh)" height="48" id="com.antonioleiva.mvpexample.app.main.FindItemsInteractor" style="stroke: #A80036; stroke-width: 1.5;" width="139" x="2067.5" y="472.5"/><ellipse cx="2082.5" cy="488.5" fill="#B4A7E5" rx="11" ry="11" style="stroke: #A80036; stroke-width: 1.0;"/><path d="M2083.4531,485.1406 L2083.4531,491.7969 L2085.1719,491.7969 Q2085.7813,491.7969 2086.0469,492.0313 Q2086.3125,492.2656 2086.3125,492.6563 Q2086.3125,493.0313 2086.0469,493.2656 Q2085.7813,493.5 2085.1719,493.5 L2080.0313,493.5 Q2079.4219,493.5 2079.1563,493.2656 Q2078.8906,493.0313 2078.8906,492.6406 Q2078.8906,492.2656 2079.1563,492.0313 Q2079.4219,491.7969 2080.0313,491.7969 L2081.75,491.7969 L2081.75,485.1406 L2080.0313,485.1406 Q2079.4219,485.1406 2079.1563,484.9063 Q2078.8906,484.6719 2078.8906,484.2813 Q2078.8906,483.9063 2079.1563,483.6719 Q2079.4219,483.4375 2080.0313,483.4375 L2085.1719,483.4375 Q2085.7813,483.4375 2086.0469,483.6719 Q2086.3125,483.9063 2086.3125,484.2813 Q2086.3125,484.6719 2086.0469,484.9063 Q2085.7813,485.1406 2085.1719,485.1406 L2083.4531,485.1406 Z "/><text fill="#000000" font-family="sans-serif" font-size="12" font-style="italic" lengthAdjust="spacingAndGlyphs" textLength="107" x="2096.5" y="493.4102">FindItemsInteractor</text><line style="stroke: #A80036; stroke-width: 1.5;" x1="2068.5" x2="2205.5" y1="504.5" y2="504.5"/><line style="stroke: #A80036; stroke-width: 1.5;" x1="2068.5" x2="2205.5" y1="512.5" y2="512.5"/><!--class com.antonioleiva.mvpexample.app.main.MainView--><rect fill="#FEFECE" filter="url(#f4zd680r4a6xh)" height="48" id="com.antonioleiva.mvpexample.app.main.MainView" style="stroke: #A80036; stroke-width: 1.5;" width="84" x="1948" y="472.5"/><ellipse cx="1963" cy="488.5" fill="#B4A7E5" rx="11" ry="11" style="stroke: #A80036; stroke-width: 1.0;"/><path d="M1963.9531,485.1406 L1963.9531,491.7969 L1965.6719,491.7969 Q1966.2813,491.7969 1966.5469,492.0313 Q1966.8125,492.2656 1966.8125,492.6563 Q1966.8125,493.0313 1966.5469,493.2656 Q1966.2813,493.5 1965.6719,493.5 L1960.5313,493.5 Q1959.9219,493.5 1959.6563,493.2656 Q1959.3906,493.0313 1959.3906,492.6406 Q1959.3906,492.2656 1959.6563,492.0313 Q1959.9219,491.7969 1960.5313,491.7969 L1962.25,491.7969 L1962.25,485.1406 L1960.5313,485.1406 Q1959.9219,485.1406 1959.6563,484.9063 Q1959.3906,484.6719 1959.3906,484.2813 Q1959.3906,483.9063 1959.6563,483.6719 Q1959.9219,483.4375 1960.5313,483.4375 L1965.6719,483.4375 Q1966.2813,483.4375 1966.5469,483.6719 Q1966.8125,483.9063 1966.8125,484.2813 Q1966.8125,484.6719 1966.5469,484.9063 Q1966.2813,485.1406 1965.6719,485.1406 L1963.9531,485.1406 Z "/><text fill="#000000" font-family="sans-serif" font-size="12" font-style="italic" lengthAdjust="spacingAndGlyphs" textLength="52" x="1977" y="493.4102">MainView</text><line style="stroke: #A80036; stroke-width: 1.5;" x1="1949" x2="2031" y1="504.5" y2="504.5"/><line style="stroke: #A80036; stroke-width: 1.5;" x1="1949" x2="2031" y1="512.5" y2="512.5"/><!--class com.antonioleiva.mvpexample.app.main.FindItemsInteractorImpl--><rect fill="#FEFECE" filter="url(#f4zd680r4a6xh)" height="48" id="com.antonioleiva.mvpexample.app.main.FindItemsInteractorImpl" style="stroke: #A80036; stroke-width: 1.5;" width="162" x="2077" y="143"/><ellipse cx="2092" cy="159" fill="#ADD1B2" rx="11" ry="11" style="stroke: #A80036; stroke-width: 1.0;"/><path d="M2094.7656,154.875 Q2094.9219,154.6563 2095.1094,154.5469 Q2095.2969,154.4375 2095.5156,154.4375 Q2095.8906,154.4375 2096.125,154.6953 Q2096.3594,154.9531 2096.3594,155.5625 L2096.3594,157.0156 Q2096.3594,157.625 2096.125,157.8906 Q2095.8906,158.1563 2095.5156,158.1563 Q2095.1719,158.1563 2094.9688,157.9531 Q2094.7656,157.7656 2094.6563,157.25 Q2094.6094,156.8906 2094.4219,156.7031 Q2094.0938,156.3281 2093.4844,156.1094 Q2092.875,155.8906 2092.25,155.8906 Q2091.4844,155.8906 2090.8516,156.2188 Q2090.2188,156.5469 2089.7266,157.2969 Q2089.2344,158.0469 2089.2344,159.0781 L2089.2344,160.1719 Q2089.2344,161.4063 2090.125,162.2266 Q2091.0156,163.0469 2092.6094,163.0469 Q2093.5469,163.0469 2094.2031,162.7969 Q2094.5938,162.6406 2095.0156,162.2031 Q2095.2813,161.9375 2095.4297,161.8594 Q2095.5781,161.7813 2095.7813,161.7813 Q2096.1094,161.7813 2096.3672,162.0391 Q2096.625,162.2969 2096.625,162.6406 Q2096.625,162.9844 2096.2813,163.3906 Q2095.7813,163.9688 2094.9844,164.2969 Q2093.9063,164.75 2092.6094,164.75 Q2091.0938,164.75 2089.8906,164.125 Q2088.9063,163.625 2088.2188,162.5547 Q2087.5313,161.4844 2087.5313,160.2031 L2087.5313,159.0469 Q2087.5313,157.7188 2088.1484,156.5703 Q2088.7656,155.4219 2089.8594,154.8047 Q2090.9531,154.1875 2092.1875,154.1875 Q2092.9219,154.1875 2093.5703,154.3516 Q2094.2188,154.5156 2094.7656,154.875 Z "/><text fill="#000000" font-family="sans-serif" font-size="12" lengthAdjust="spacingAndGlyphs" textLength="130" x="2106" y="163.9102">FindItemsInteractorImpl</text><line style="stroke: #A80036; stroke-width: 1.5;" x1="2078" x2="2238" y1="175" y2="175"/><line style="stroke: #A80036; stroke-width: 1.5;" x1="2078" x2="2238" y1="183" y2="183"/><!--class com.antonioleiva.mvpexample.app.main.MainActivity--><rect fill="#FEFECE" filter="url(#f4zd680r4a6xh)" height="48" id="com.antonioleiva.mvpexample.app.main.MainActivity" style="stroke: #A80036; stroke-width: 1.5;" width="93" x="1948.5" y="143"/><ellipse cx="1963.5" cy="159" fill="#ADD1B2" rx="11" ry="11" style="stroke: #A80036; stroke-width: 1.0;"/><path d="M1966.2656,154.875 Q1966.4219,154.6563 1966.6094,154.5469 Q1966.7969,154.4375 1967.0156,154.4375 Q1967.3906,154.4375 1967.625,154.6953 Q1967.8594,154.9531 1967.8594,155.5625 L1967.8594,157.0156 Q1967.8594,157.625 1967.625,157.8906 Q1967.3906,158.1563 1967.0156,158.1563 Q1966.6719,158.1563 1966.4688,157.9531 Q1966.2656,157.7656 1966.1563,157.25 Q1966.1094,156.8906 1965.9219,156.7031 Q1965.5938,156.3281 1964.9844,156.1094 Q1964.375,155.8906 1963.75,155.8906 Q1962.9844,155.8906 1962.3516,156.2188 Q1961.7188,156.5469 1961.2266,157.2969 Q1960.7344,158.0469 1960.7344,159.0781 L1960.7344,160.1719 Q1960.7344,161.4063 1961.625,162.2266 Q1962.5156,163.0469 1964.1094,163.0469 Q1965.0469,163.0469 1965.7031,162.7969 Q1966.0938,162.6406 1966.5156,162.2031 Q1966.7813,161.9375 1966.9297,161.8594 Q1967.0781,161.7813 1967.2813,161.7813 Q1967.6094,161.7813 1967.8672,162.0391 Q1968.125,162.2969 1968.125,162.6406 Q1968.125,162.9844 1967.7813,163.3906 Q1967.2813,163.9688 1966.4844,164.2969 Q1965.4063,164.75 1964.1094,164.75 Q1962.5938,164.75 1961.3906,164.125 Q1960.4063,163.625 1959.7188,162.5547 Q1959.0313,161.4844 1959.0313,160.2031 L1959.0313,159.0469 Q1959.0313,157.7188 1959.6484,156.5703 Q1960.2656,155.4219 1961.3594,154.8047 Q1962.4531,154.1875 1963.6875,154.1875 Q1964.4219,154.1875 1965.0703,154.3516 Q1965.7188,154.5156 1966.2656,154.875 Z "/><text fill="#000000" font-family="sans-serif" font-size="12" lengthAdjust="spacingAndGlyphs" textLength="61" x="1977.5" y="163.9102">MainActivity</text><line style="stroke: #A80036; stroke-width: 1.5;" x1="1949.5" x2="2040.5" y1="175" y2="175"/><line style="stroke: #A80036; stroke-width: 1.5;" x1="1949.5" x2="2040.5" y1="183" y2="183"/><!--class com.antonioleiva.mvpexample.app.main.MainPresenterImpl--><rect fill="#FEFECE" filter="url(#f4zd680r4a6xh)" height="48" id="com.antonioleiva.mvpexample.app.main.MainPresenterImpl" style="stroke: #A80036; stroke-width: 1.5;" width="136" x="2398" y="143"/><ellipse cx="2413" cy="159" fill="#ADD1B2" rx="11" ry="11" style="stroke: #A80036; stroke-width: 1.0;"/><path d="M2415.7656,154.875 Q2415.9219,154.6563 2416.1094,154.5469 Q2416.2969,154.4375 2416.5156,154.4375 Q2416.8906,154.4375 2417.125,154.6953 Q2417.3594,154.9531 2417.3594,155.5625 L2417.3594,157.0156 Q2417.3594,157.625 2417.125,157.8906 Q2416.8906,158.1563 2416.5156,158.1563 Q2416.1719,158.1563 2415.9688,157.9531 Q2415.7656,157.7656 2415.6563,157.25 Q2415.6094,156.8906 2415.4219,156.7031 Q2415.0938,156.3281 2414.4844,156.1094 Q2413.875,155.8906 2413.25,155.8906 Q2412.4844,155.8906 2411.8516,156.2188 Q2411.2188,156.5469 2410.7266,157.2969 Q2410.2344,158.0469 2410.2344,159.0781 L2410.2344,160.1719 Q2410.2344,161.4063 2411.125,162.2266 Q2412.0156,163.0469 2413.6094,163.0469 Q2414.5469,163.0469 2415.2031,162.7969 Q2415.5938,162.6406 2416.0156,162.2031 Q2416.2813,161.9375 2416.4297,161.8594 Q2416.5781,161.7813 2416.7813,161.7813 Q2417.1094,161.7813 2417.3672,162.0391 Q2417.625,162.2969 2417.625,162.6406 Q2417.625,162.9844 2417.2813,163.3906 Q2416.7813,163.9688 2415.9844,164.2969 Q2414.9063,164.75 2413.6094,164.75 Q2412.0938,164.75 2410.8906,164.125 Q2409.9063,163.625 2409.2188,162.5547 Q2408.5313,161.4844 2408.5313,160.2031 L2408.5313,159.0469 Q2408.5313,157.7188 2409.1484,156.5703 Q2409.7656,155.4219 2410.8594,154.8047 Q2411.9531,154.1875 2413.1875,154.1875 Q2413.9219,154.1875 2414.5703,154.3516 Q2415.2188,154.5156 2415.7656,154.875 Z "/><text fill="#000000" font-family="sans-serif" font-size="12" lengthAdjust="spacingAndGlyphs" textLength="104" x="2427" y="163.9102">MainPresenterImpl</text><line style="stroke: #A80036; stroke-width: 1.5;" x1="2399" x2="2533" y1="175" y2="175"/><line style="stroke: #A80036; stroke-width: 1.5;" x1="2399" x2="2533" y1="183" y2="183"/><!--class org.hamcrest.CoreMatchers--><rect fill="#FEFECE" filter="url(#f4zd680r4a6xh)" height="48" id="org.hamcrest.CoreMatchers" style="stroke: #A80036; stroke-width: 1.5;" width="109" x="3314.5" y="143"/><ellipse cx="3329.5" cy="159" fill="#ADD1B2" rx="11" ry="11" style="stroke: #A80036; stroke-width: 1.0;"/><path d="M3332.2656,154.875 Q3332.4219,154.6563 3332.6094,154.5469 Q3332.7969,154.4375 3333.0156,154.4375 Q3333.3906,154.4375 3333.625,154.6953 Q3333.8594,154.9531 3333.8594,155.5625 L3333.8594,157.0156 Q3333.8594,157.625 3333.625,157.8906 Q3333.3906,158.1563 3333.0156,158.1563 Q3332.6719,158.1563 3332.4688,157.9531 Q3332.2656,157.7656 3332.1563,157.25 Q3332.1094,156.8906 3331.9219,156.7031 Q3331.5938,156.3281 3330.9844,156.1094 Q3330.375,155.8906 3329.75,155.8906 Q3328.9844,155.8906 3328.3516,156.2188 Q3327.7188,156.5469 3327.2266,157.2969 Q3326.7344,158.0469 3326.7344,159.0781 L3326.7344,160.1719 Q3326.7344,161.4063 3327.625,162.2266 Q3328.5156,163.0469 3330.1094,163.0469 Q3331.0469,163.0469 3331.7031,162.7969 Q3332.0938,162.6406 3332.5156,162.2031 Q3332.7813,161.9375 3332.9297,161.8594 Q3333.0781,161.7813 3333.2813,161.7813 Q3333.6094,161.7813 3333.8672,162.0391 Q3334.125,162.2969 3334.125,162.6406 Q3334.125,162.9844 3333.7813,163.3906 Q3333.2813,163.9688 3332.4844,164.2969 Q3331.4063,164.75 3330.1094,164.75 Q3328.5938,164.75 3327.3906,164.125 Q3326.4063,163.625 3325.7188,162.5547 Q3325.0313,161.4844 3325.0313,160.2031 L3325.0313,159.0469 Q3325.0313,157.7188 3325.6484,156.5703 Q3326.2656,155.4219 3327.3594,154.8047 Q3328.4531,154.1875 3329.6875,154.1875 Q3330.4219,154.1875 3331.0703,154.3516 Q3331.7188,154.5156 3332.2656,154.875 Z "/><text fill="#000000" font-family="sans-serif" font-size="12" lengthAdjust="spacingAndGlyphs" textLength="77" x="3343.5" y="163.9102">CoreMatchers</text><line style="stroke: #A80036; stroke-width: 1.5;" x1="3315.5" x2="3422.5" y1="175" y2="175"/><line style="stroke: #A80036; stroke-width: 1.5;" x1="3315.5" x2="3422.5" y1="183" y2="183"/><!--class org.hamcrest.MatcherAssert--><rect fill="#FEFECE" filter="url(#f4zd680r4a6xh)" height="48" id="org.hamcrest.MatcherAssert" style="stroke: #A80036; stroke-width: 1.5;" width="110" x="3169" y="143"/><ellipse cx="3184" cy="159" fill="#ADD1B2" rx="11" ry="11" style="stroke: #A80036; stroke-width: 1.0;"/><path d="M3186.7656,154.875 Q3186.9219,154.6563 3187.1094,154.5469 Q3187.2969,154.4375 3187.5156,154.4375 Q3187.8906,154.4375 3188.125,154.6953 Q3188.3594,154.9531 3188.3594,155.5625 L3188.3594,157.0156 Q3188.3594,157.625 3188.125,157.8906 Q3187.8906,158.1563 3187.5156,158.1563 Q3187.1719,158.1563 3186.9688,157.9531 Q3186.7656,157.7656 3186.6563,157.25 Q3186.6094,156.8906 3186.4219,156.7031 Q3186.0938,156.3281 3185.4844,156.1094 Q3184.875,155.8906 3184.25,155.8906 Q3183.4844,155.8906 3182.8516,156.2188 Q3182.2188,156.5469 3181.7266,157.2969 Q3181.2344,158.0469 3181.2344,159.0781 L3181.2344,160.1719 Q3181.2344,161.4063 3182.125,162.2266 Q3183.0156,163.0469 3184.6094,163.0469 Q3185.5469,163.0469 3186.2031,162.7969 Q3186.5938,162.6406 3187.0156,162.2031 Q3187.2813,161.9375 3187.4297,161.8594 Q3187.5781,161.7813 3187.7813,161.7813 Q3188.1094,161.7813 3188.3672,162.0391 Q3188.625,162.2969 3188.625,162.6406 Q3188.625,162.9844 3188.2813,163.3906 Q3187.7813,163.9688 3186.9844,164.2969 Q3185.9063,164.75 3184.6094,164.75 Q3183.0938,164.75 3181.8906,164.125 Q3180.9063,163.625 3180.2188,162.5547 Q3179.5313,161.4844 3179.5313,160.2031 L3179.5313,159.0469 Q3179.5313,157.7188 3180.1484,156.5703 Q3180.7656,155.4219 3181.8594,154.8047 Q3182.9531,154.1875 3184.1875,154.1875 Q3184.9219,154.1875 3185.5703,154.3516 Q3186.2188,154.5156 3186.7656,154.875 Z "/><text fill="#000000" font-family="sans-serif" font-size="12" lengthAdjust="spacingAndGlyphs" textLength="78" x="3198" y="163.9102">MatcherAssert</text><line style="stroke: #A80036; stroke-width: 1.5;" x1="3170" x2="3278" y1="175" y2="175"/><line style="stroke: #A80036; stroke-width: 1.5;" x1="3170" x2="3278" y1="183" y2="183"/><!--class org.junit.Assert--><rect fill="#FEFECE" filter="url(#f4zd680r4a6xh)" height="48" id="org.junit.Assert" style="stroke: #A80036; stroke-width: 1.5;" width="67" x="3480.5" y="143"/><ellipse cx="3495.5" cy="159" fill="#ADD1B2" rx="11" ry="11" style="stroke: #A80036; stroke-width: 1.0;"/><path d="M3498.2656,154.875 Q3498.4219,154.6563 3498.6094,154.5469 Q3498.7969,154.4375 3499.0156,154.4375 Q3499.3906,154.4375 3499.625,154.6953 Q3499.8594,154.9531 3499.8594,155.5625 L3499.8594,157.0156 Q3499.8594,157.625 3499.625,157.8906 Q3499.3906,158.1563 3499.0156,158.1563 Q3498.6719,158.1563 3498.4688,157.9531 Q3498.2656,157.7656 3498.1563,157.25 Q3498.1094,156.8906 3497.9219,156.7031 Q3497.5938,156.3281 3496.9844,156.1094 Q3496.375,155.8906 3495.75,155.8906 Q3494.9844,155.8906 3494.3516,156.2188 Q3493.7188,156.5469 3493.2266,157.2969 Q3492.7344,158.0469 3492.7344,159.0781 L3492.7344,160.1719 Q3492.7344,161.4063 3493.625,162.2266 Q3494.5156,163.0469 3496.1094,163.0469 Q3497.0469,163.0469 3497.7031,162.7969 Q3498.0938,162.6406 3498.5156,162.2031 Q3498.7813,161.9375 3498.9297,161.8594 Q3499.0781,161.7813 3499.2813,161.7813 Q3499.6094,161.7813 3499.8672,162.0391 Q3500.125,162.2969 3500.125,162.6406 Q3500.125,162.9844 3499.7813,163.3906 Q3499.2813,163.9688 3498.4844,164.2969 Q3497.4063,164.75 3496.1094,164.75 Q3494.5938,164.75 3493.3906,164.125 Q3492.4063,163.625 3491.7188,162.5547 Q3491.0313,161.4844 3491.0313,160.2031 L3491.0313,159.0469 Q3491.0313,157.7188 3491.6484,156.5703 Q3492.2656,155.4219 3493.3594,154.8047 Q3494.4531,154.1875 3495.6875,154.1875 Q3496.4219,154.1875 3497.0703,154.3516 Q3497.7188,154.5156 3498.2656,154.875 Z "/><text fill="#000000" font-family="sans-serif" font-size="12" lengthAdjust="spacingAndGlyphs" textLength="35" x="3509.5" y="163.9102">Assert</text><line style="stroke: #A80036; stroke-width: 1.5;" x1="3481.5" x2="3546.5" y1="175" y2="175"/><line style="stroke: #A80036; stroke-width: 1.5;" x1="3481.5" x2="3546.5" y1="183" y2="183"/><!--class org.mockito.ArgumentCaptor--><rect fill="#FEFECE" filter="url(#f4zd680r4a6xh)" height="48" id="org.mockito.ArgumentCaptor" style="stroke: #A80036; stroke-width: 1.5;" width="122" x="38" y="735"/><ellipse cx="53" cy="751" fill="#ADD1B2" rx="11" ry="11" style="stroke: #A80036; stroke-width: 1.0;"/><path d="M55.7656,746.875 Q55.9219,746.6563 56.1094,746.5469 Q56.2969,746.4375 56.5156,746.4375 Q56.8906,746.4375 57.125,746.6953 Q57.3594,746.9531 57.3594,747.5625 L57.3594,749.0156 Q57.3594,749.625 57.125,749.8906 Q56.8906,750.1563 56.5156,750.1563 Q56.1719,750.1563 55.9688,749.9531 Q55.7656,749.7656 55.6563,749.25 Q55.6094,748.8906 55.4219,748.7031 Q55.0938,748.3281 54.4844,748.1094 Q53.875,747.8906 53.25,747.8906 Q52.4844,747.8906 51.8516,748.2188 Q51.2188,748.5469 50.7266,749.2969 Q50.2344,750.0469 50.2344,751.0781 L50.2344,752.1719 Q50.2344,753.4063 51.125,754.2266 Q52.0156,755.0469 53.6094,755.0469 Q54.5469,755.0469 55.2031,754.7969 Q55.5938,754.6406 56.0156,754.2031 Q56.2813,753.9375 56.4297,753.8594 Q56.5781,753.7813 56.7813,753.7813 Q57.1094,753.7813 57.3672,754.0391 Q57.625,754.2969 57.625,754.6406 Q57.625,754.9844 57.2813,755.3906 Q56.7813,755.9688 55.9844,756.2969 Q54.9063,756.75 53.6094,756.75 Q52.0938,756.75 50.8906,756.125 Q49.9063,755.625 49.2188,754.5547 Q48.5313,753.4844 48.5313,752.2031 L48.5313,751.0469 Q48.5313,749.7188 49.1484,748.5703 Q49.7656,747.4219 50.8594,746.8047 Q51.9531,746.1875 53.1875,746.1875 Q53.9219,746.1875 54.5703,746.3516 Q55.2188,746.5156 55.7656,746.875 Z "/><text fill="#000000" font-family="sans-serif" font-size="12" lengthAdjust="spacingAndGlyphs" textLength="90" x="67" y="755.9102">ArgumentCaptor</text><line style="stroke: #A80036; stroke-width: 1.5;" x1="39" x2="159" y1="767" y2="767"/><line style="stroke: #A80036; stroke-width: 1.5;" x1="39" x2="159" y1="775" y2="775"/><!--class org.mockito.Matchers--><rect fill="#FEFECE" filter="url(#f4zd680r4a6xh)" height="48" id="org.mockito.Matchers" style="stroke: #A80036; stroke-width: 1.5;" width="82" x="195" y="735"/><ellipse cx="210" cy="751" fill="#ADD1B2" rx="11" ry="11" style="stroke: #A80036; stroke-width: 1.0;"/><path d="M212.7656,746.875 Q212.9219,746.6563 213.1094,746.5469 Q213.2969,746.4375 213.5156,746.4375 Q213.8906,746.4375 214.125,746.6953 Q214.3594,746.9531 214.3594,747.5625 L214.3594,749.0156 Q214.3594,749.625 214.125,749.8906 Q213.8906,750.1563 213.5156,750.1563 Q213.1719,750.1563 212.9688,749.9531 Q212.7656,749.7656 212.6563,749.25 Q212.6094,748.8906 212.4219,748.7031 Q212.0938,748.3281 211.4844,748.1094 Q210.875,747.8906 210.25,747.8906 Q209.4844,747.8906 208.8516,748.2188 Q208.2188,748.5469 207.7266,749.2969 Q207.2344,750.0469 207.2344,751.0781 L207.2344,752.1719 Q207.2344,753.4063 208.125,754.2266 Q209.0156,755.0469 210.6094,755.0469 Q211.5469,755.0469 212.2031,754.7969 Q212.5938,754.6406 213.0156,754.2031 Q213.2813,753.9375 213.4297,753.8594 Q213.5781,753.7813 213.7813,753.7813 Q214.1094,753.7813 214.3672,754.0391 Q214.625,754.2969 214.625,754.6406 Q214.625,754.9844 214.2813,755.3906 Q213.7813,755.9688 212.9844,756.2969 Q211.9063,756.75 210.6094,756.75 Q209.0938,756.75 207.8906,756.125 Q206.9063,755.625 206.2188,754.5547 Q205.5313,753.4844 205.5313,752.2031 L205.5313,751.0469 Q205.5313,749.7188 206.1484,748.5703 Q206.7656,747.4219 207.8594,746.8047 Q208.9531,746.1875 210.1875,746.1875 Q210.9219,746.1875 211.5703,746.3516 Q212.2188,746.5156 212.7656,746.875 Z "/><text fill="#000000" font-family="sans-serif" font-size="12" lengthAdjust="spacingAndGlyphs" textLength="50" x="224" y="755.9102">Matchers</text><line style="stroke: #A80036; stroke-width: 1.5;" x1="196" x2="276" y1="767" y2="767"/><line style="stroke: #A80036; stroke-width: 1.5;" x1="196" x2="276" y1="775" y2="775"/><!--class org.mockito.Mockito--><rect fill="#FEFECE" filter="url(#f4zd680r4a6xh)" height="48" id="org.mockito.Mockito" style="stroke: #A80036; stroke-width: 1.5;" width="73" x="62.5" y="843"/><ellipse cx="77.5" cy="859" fill="#ADD1B2" rx="11" ry="11" style="stroke: #A80036; stroke-width: 1.0;"/><path d="M80.2656,854.875 Q80.4219,854.6563 80.6094,854.5469 Q80.7969,854.4375 81.0156,854.4375 Q81.3906,854.4375 81.625,854.6953 Q81.8594,854.9531 81.8594,855.5625 L81.8594,857.0156 Q81.8594,857.625 81.625,857.8906 Q81.3906,858.1563 81.0156,858.1563 Q80.6719,858.1563 80.4688,857.9531 Q80.2656,857.7656 80.1563,857.25 Q80.1094,856.8906 79.9219,856.7031 Q79.5938,856.3281 78.9844,856.1094 Q78.375,855.8906 77.75,855.8906 Q76.9844,855.8906 76.3516,856.2188 Q75.7188,856.5469 75.2266,857.2969 Q74.7344,858.0469 74.7344,859.0781 L74.7344,860.1719 Q74.7344,861.4063 75.625,862.2266 Q76.5156,863.0469 78.1094,863.0469 Q79.0469,863.0469 79.7031,862.7969 Q80.0938,862.6406 80.5156,862.2031 Q80.7813,861.9375 80.9297,861.8594 Q81.0781,861.7813 81.2813,861.7813 Q81.6094,861.7813 81.8672,862.0391 Q82.125,862.2969 82.125,862.6406 Q82.125,862.9844 81.7813,863.3906 Q81.2813,863.9688 80.4844,864.2969 Q79.4063,864.75 78.1094,864.75 Q76.5938,864.75 75.3906,864.125 Q74.4063,863.625 73.7188,862.5547 Q73.0313,861.4844 73.0313,860.2031 L73.0313,859.0469 Q73.0313,857.7188 73.6484,856.5703 Q74.2656,855.4219 75.3594,854.8047 Q76.4531,854.1875 77.6875,854.1875 Q78.4219,854.1875 79.0703,854.3516 Q79.7188,854.5156 80.2656,854.875 Z "/><text fill="#000000" font-family="sans-serif" font-size="12" lengthAdjust="spacingAndGlyphs" textLength="41" x="91.5" y="863.9102">Mockito</text><line style="stroke: #A80036; stroke-width: 1.5;" x1="63.5" x2="134.5" y1="875" y2="875"/><line style="stroke: #A80036; stroke-width: 1.5;" x1="63.5" x2="134.5" y1="883" y2="883"/><!--class org.mockito.runners.MockitoJUnitRunner--><rect fill="#FEFECE" filter="url(#f4zd680r4a6xh)" height="48" id="org.mockito.runners.MockitoJUnitRunner" style="stroke: #A80036; stroke-width: 1.5;" width="142" x="3604" y="143"/><ellipse cx="3619" cy="159" fill="#ADD1B2" rx="11" ry="11" style="stroke: #A80036; stroke-width: 1.0;"/><path d="M3621.7656,154.875 Q3621.9219,154.6563 3622.1094,154.5469 Q3622.2969,154.4375 3622.5156,154.4375 Q3622.8906,154.4375 3623.125,154.6953 Q3623.3594,154.9531 3623.3594,155.5625 L3623.3594,157.0156 Q3623.3594,157.625 3623.125,157.8906 Q3622.8906,158.1563 3622.5156,158.1563 Q3622.1719,158.1563 3621.9688,157.9531 Q3621.7656,157.7656 3621.6563,157.25 Q3621.6094,156.8906 3621.4219,156.7031 Q3621.0938,156.3281 3620.4844,156.1094 Q3619.875,155.8906 3619.25,155.8906 Q3618.4844,155.8906 3617.8516,156.2188 Q3617.2188,156.5469 3616.7266,157.2969 Q3616.2344,158.0469 3616.2344,159.0781 L3616.2344,160.1719 Q3616.2344,161.4063 3617.125,162.2266 Q3618.0156,163.0469 3619.6094,163.0469 Q3620.5469,163.0469 3621.2031,162.7969 Q3621.5938,162.6406 3622.0156,162.2031 Q3622.2813,161.9375 3622.4297,161.8594 Q3622.5781,161.7813 3622.7813,161.7813 Q3623.1094,161.7813 3623.3672,162.0391 Q3623.625,162.2969 3623.625,162.6406 Q3623.625,162.9844 3623.2813,163.3906 Q3622.7813,163.9688 3621.9844,164.2969 Q3620.9063,164.75 3619.6094,164.75 Q3618.0938,164.75 3616.8906,164.125 Q3615.9063,163.625 3615.2188,162.5547 Q3614.5313,161.4844 3614.5313,160.2031 L3614.5313,159.0469 Q3614.5313,157.7188 3615.1484,156.5703 Q3615.7656,155.4219 3616.8594,154.8047 Q3617.9531,154.1875 3619.1875,154.1875 Q3619.9219,154.1875 3620.5703,154.3516 Q3621.2188,154.5156 3621.7656,154.875 Z "/><text fill="#000000" font-family="sans-serif" font-size="12" lengthAdjust="spacingAndGlyphs" textLength="110" x="3633" y="163.9102">MockitoJUnitRunner</text><line style="stroke: #A80036; stroke-width: 1.5;" x1="3605" x2="3745" y1="175" y2="175"/><line style="stroke: #A80036; stroke-width: 1.5;" x1="3605" x2="3745" y1="183" y2="183"/><!--class AdapterView.OnItemClickListener--><rect fill="#FEFECE" filter="url(#f4zd680r4a6xh)" height="48" id="AdapterView.OnItemClickListener" style="stroke: #A80036; stroke-width: 1.5;" width="145" x="2642.5" y="472.5"/><ellipse cx="2657.5" cy="488.5" fill="#B4A7E5" rx="11" ry="11" style="stroke: #A80036; stroke-width: 1.0;"/><path d="M2658.4531,485.1406 L2658.4531,491.7969 L2660.1719,491.7969 Q2660.7813,491.7969 2661.0469,492.0313 Q2661.3125,492.2656 2661.3125,492.6563 Q2661.3125,493.0313 2661.0469,493.2656 Q2660.7813,493.5 2660.1719,493.5 L2655.0313,493.5 Q2654.4219,493.5 2654.1563,493.2656 Q2653.8906,493.0313 2653.8906,492.6406 Q2653.8906,492.2656 2654.1563,492.0313 Q2654.4219,491.7969 2655.0313,491.7969 L2656.75,491.7969 L2656.75,485.1406 L2655.0313,485.1406 Q2654.4219,485.1406 2654.1563,484.9063 Q2653.8906,484.6719 2653.8906,484.2813 Q2653.8906,483.9063 2654.1563,483.6719 Q2654.4219,483.4375 2655.0313,483.4375 L2660.1719,483.4375 Q2660.7813,483.4375 2661.0469,483.6719 Q2661.3125,483.9063 2661.3125,484.2813 Q2661.3125,484.6719 2661.0469,484.9063 Q2660.7813,485.1406 2660.1719,485.1406 L2658.4531,485.1406 Z "/><text fill="#000000" font-family="sans-serif" font-size="12" font-style="italic" lengthAdjust="spacingAndGlyphs" textLength="113" x="2671.5" y="493.4102">OnItemClickListener</text><line style="stroke: #A80036; stroke-width: 1.5;" x1="2643.5" x2="2786.5" y1="504.5" y2="504.5"/><line style="stroke: #A80036; stroke-width: 1.5;" x1="2643.5" x2="2786.5" y1="512.5" y2="512.5"/><!--class FindItemsInteractor.OnFinishedListener--><rect fill="#FEFECE" filter="url(#f4zd680r4a6xh)" height="48" id="FindItemsInteractor.OnFinishedListener" style="stroke: #A80036; stroke-width: 1.5;" width="139" x="2844.5" y="472.5"/><ellipse cx="2859.5" cy="488.5" fill="#B4A7E5" rx="11" ry="11" style="stroke: #A80036; stroke-width: 1.0;"/><path d="M2860.4531,485.1406 L2860.4531,491.7969 L2862.1719,491.7969 Q2862.7813,491.7969 2863.0469,492.0313 Q2863.3125,492.2656 2863.3125,492.6563 Q2863.3125,493.0313 2863.0469,493.2656 Q2862.7813,493.5 2862.1719,493.5 L2857.0313,493.5 Q2856.4219,493.5 2856.1563,493.2656 Q2855.8906,493.0313 2855.8906,492.6406 Q2855.8906,492.2656 2856.1563,492.0313 Q2856.4219,491.7969 2857.0313,491.7969 L2858.75,491.7969 L2858.75,485.1406 L2857.0313,485.1406 Q2856.4219,485.1406 2856.1563,484.9063 Q2855.8906,484.6719 2855.8906,484.2813 Q2855.8906,483.9063 2856.1563,483.6719 Q2856.4219,483.4375 2857.0313,483.4375 L2862.1719,483.4375 Q2862.7813,483.4375 2863.0469,483.6719 Q2863.3125,483.9063 2863.3125,484.2813 Q2863.3125,484.6719 2863.0469,484.9063 Q2862.7813,485.1406 2862.1719,485.1406 L2860.4531,485.1406 Z "/><text fill="#000000" font-family="sans-serif" font-size="12" font-style="italic" lengthAdjust="spacingAndGlyphs" textLength="107" x="2873.5" y="493.4102">OnFinishedListener</text><line style="stroke: #A80036; stroke-width: 1.5;" x1="2845.5" x2="2982.5" y1="504.5" y2="504.5"/><line style="stroke: #A80036; stroke-width: 1.5;" x1="2845.5" x2="2982.5" y1="512.5" y2="512.5"/><!--class LoginInteractor.OnLoginFinishedListener--><rect fill="#FEFECE" filter="url(#f4zd680r4a6xh)" height="48" id="LoginInteractor.OnLoginFinishedListener" style="stroke: #A80036; stroke-width: 1.5;" width="170" x="1598" y="472.5"/><ellipse cx="1613" cy="488.5" fill="#B4A7E5" rx="11" ry="11" style="stroke: #A80036; stroke-width: 1.0;"/><path d="M1613.9531,485.1406 L1613.9531,491.7969 L1615.6719,491.7969 Q1616.2813,491.7969 1616.5469,492.0313 Q1616.8125,492.2656 1616.8125,492.6563 Q1616.8125,493.0313 1616.5469,493.2656 Q1616.2813,493.5 1615.6719,493.5 L1610.5313,493.5 Q1609.9219,493.5 1609.6563,493.2656 Q1609.3906,493.0313 1609.3906,492.6406 Q1609.3906,492.2656 1609.6563,492.0313 Q1609.9219,491.7969 1610.5313,491.7969 L1612.25,491.7969 L1612.25,485.1406 L1610.5313,485.1406 Q1609.9219,485.1406 1609.6563,484.9063 Q1609.3906,484.6719 1609.3906,484.2813 Q1609.3906,483.9063 1609.6563,483.6719 Q1609.9219,483.4375 1610.5313,483.4375 L1615.6719,483.4375 Q1616.2813,483.4375 1616.5469,483.6719 Q1616.8125,483.9063 1616.8125,484.2813 Q1616.8125,484.6719 1616.5469,484.9063 Q1616.2813,485.1406 1615.6719,485.1406 L1613.9531,485.1406 Z "/><text fill="#000000" font-family="sans-serif" font-size="12" font-style="italic" lengthAdjust="spacingAndGlyphs" textLength="138" x="1627" y="493.4102">OnLoginFinishedListener</text><line style="stroke: #A80036; stroke-width: 1.5;" x1="1599" x2="1767" y1="504.5" y2="504.5"/><line style="stroke: #A80036; stroke-width: 1.5;" x1="1599" x2="1767" y1="512.5" y2="512.5"/><!--class View.OnClickListener--><rect fill="#FEFECE" filter="url(#f4zd680r4a6xh)" height="48" id="View.OnClickListener" style="stroke: #A80036; stroke-width: 1.5;" width="120" x="1422" y="472.5"/><ellipse cx="1437" cy="488.5" fill="#B4A7E5" rx="11" ry="11" style="stroke: #A80036; stroke-width: 1.0;"/><path d="M1437.9531,485.1406 L1437.9531,491.7969 L1439.6719,491.7969 Q1440.2813,491.7969 1440.5469,492.0313 Q1440.8125,492.2656 1440.8125,492.6563 Q1440.8125,493.0313 1440.5469,493.2656 Q1440.2813,493.5 1439.6719,493.5 L1434.5313,493.5 Q1433.9219,493.5 1433.6563,493.2656 Q1433.3906,493.0313 1433.3906,492.6406 Q1433.3906,492.2656 1433.6563,492.0313 Q1433.9219,491.7969 1434.5313,491.7969 L1436.25,491.7969 L1436.25,485.1406 L1434.5313,485.1406 Q1433.9219,485.1406 1433.6563,484.9063 Q1433.3906,484.6719 1433.3906,484.2813 Q1433.3906,483.9063 1433.6563,483.6719 Q1433.9219,483.4375 1434.5313,483.4375 L1439.6719,483.4375 Q1440.2813,483.4375 1440.5469,483.6719 Q1440.8125,483.9063 1440.8125,484.2813 Q1440.8125,484.6719 1440.5469,484.9063 Q1440.2813,485.1406 1439.6719,485.1406 L1437.9531,485.1406 Z "/><text fill="#000000" font-family="sans-serif" font-size="12" font-style="italic" lengthAdjust="spacingAndGlyphs" textLength="88" x="1451" y="493.4102">OnClickListener</text><line style="stroke: #A80036; stroke-width: 1.5;" x1="1423" x2="1541" y1="504.5" y2="504.5"/><line style="stroke: #A80036; stroke-width: 1.5;" x1="1423" x2="1541" y1="512.5" y2="512.5"/><!--link com.antonioleiva.mvpexample.app.Login.LoginActivity to android.app.Activity--><path d="M1365.66,176.776 C1483.98,191.389 1666.03,230.319 1784,334 C1819.34,365.06 1838.84,416.455 1848.83,452.918 " fill="none" id="com.antonioleiva.mvpexample.app.Login.LoginActivity-android.app.Activity" style="stroke: #A80036; stroke-width: 1.0;"/><polygon fill="none" points="1855.64,451.298,1853.66,472.395,1842.05,454.667,1855.64,451.298" style="stroke: #A80036; stroke-width: 1.0;"/><!--link com.antonioleiva.mvpexample.app.Login.LoginActivity to View.OnClickListener--><path d="M1337.15,274.139 C1352.53,293.729 1368.05,314.243 1382,334 C1410.15,373.856 1439.17,421.59 1458.64,454.781 " fill="none" id="com.antonioleiva.mvpexample.app.Login.LoginActivity-View.OnClickListener" style="stroke: #A80036; stroke-width: 1.0;"/><polygon fill="none" points="1464.93,451.666,1468.93,472.474,1452.82,458.703,1464.93,451.666" style="stroke: #A80036; stroke-width: 1.0;"/><!--link com.antonioleiva.mvpexample.app.Login.LoginActivity to com.antonioleiva.mvpexample.app.Login.LoginView--><path d="M1272.38,274.33 C1285.71,335.002 1301.7,407.716 1311.61,452.768 " fill="none" id="com.antonioleiva.mvpexample.app.Login.LoginActivity-com.antonioleiva.mvpexample.app.Login.LoginView" style="stroke: #A80036; stroke-width: 1.0;"/><polygon fill="none" points="1318.48,451.453,1315.94,472.489,1304.81,454.459,1318.48,451.453" style="stroke: #A80036; stroke-width: 1.0;"/><!--link com.antonioleiva.mvpexample.app.Login.LoginInteractorImpl to com.antonioleiva.mvpexample.app.Login.LoginInteractor--><path d="M855.375,191.029 C859.304,217.834 866.177,264.727 873.369,313.797 " fill="none" id="com.antonioleiva.mvpexample.app.Login.LoginInteractorImpl-com.antonioleiva.mvpexample.app.Login.LoginInteractor" style="stroke: #A80036; stroke-width: 1.0;"/><polygon fill="none" points="880.324,312.979,876.298,333.783,866.472,315.01,880.324,312.979" style="stroke: #A80036; stroke-width: 1.0;"/><!--link com.antonioleiva.mvpexample.app.Login.LoginPresenterImpl to LoginInteractor.OnLoginFinishedListener--><path d="M1039.37,191.405 C1053.91,216.36 1080.49,254.863 1115,274 C1288.76,370.347 1385.91,234.696 1558,334 C1606.36,361.905 1642.52,416.589 1663.2,454.548 " fill="none" id="com.antonioleiva.mvpexample.app.Login.LoginPresenterImpl-LoginInteractor.OnLoginFinishedListener" style="stroke: #A80036; stroke-width: 1.0;"/><polygon fill="none" points="1669.46,451.417,1672.45,472.394,1657.03,457.865,1669.46,451.417" style="stroke: #A80036; stroke-width: 1.0;"/><!--link com.antonioleiva.mvpexample.app.Login.LoginPresenterImpl to com.antonioleiva.mvpexample.app.Login.LoginPresenter--><path d="M1038.2,191.062 C1053.73,223.092 1082.65,282.877 1107,334 C1126.42,374.776 1148.36,421.471 1163.66,454.128 " fill="none" id="com.antonioleiva.mvpexample.app.Login.LoginPresenterImpl-com.antonioleiva.mvpexample.app.Login.LoginPresenter" style="stroke: #A80036; stroke-width: 1.0;"/><polygon fill="none" points="1170.1,451.387,1172.24,472.468,1157.43,457.322,1170.1,451.387" style="stroke: #A80036; stroke-width: 1.0;"/><!--link com.antonioleiva.mvpexample.app.main.FindItemsInteractorImpl to com.antonioleiva.mvpexample.app.main.FindItemsInteractor--><path d="M2156.52,191.029 C2153.04,245.289 2144.29,381.867 2139.78,452.183 " fill="none" id="com.antonioleiva.mvpexample.app.main.FindItemsInteractorImpl-com.antonioleiva.mvpexample.app.main.FindItemsInteractor" style="stroke: #A80036; stroke-width: 1.0;"/><polygon fill="none" points="2146.74,452.985,2138.48,472.496,2132.77,452.089,2146.74,452.985" style="stroke: #A80036; stroke-width: 1.0;"/><!--link com.antonioleiva.mvpexample.app.main.MainActivity to android.app.Activity--><path d="M1985.37,191.029 C1962.47,245.758 1904.54,384.238 1875.36,453.994 " fill="none" id="com.antonioleiva.mvpexample.app.main.MainActivity-android.app.Activity" style="stroke: #A80036; stroke-width: 1.0;"/><polygon fill="none" points="1881.8,456.747,1867.62,472.496,1868.88,451.344,1881.8,456.747" style="stroke: #A80036; stroke-width: 1.0;"/><!--link com.antonioleiva.mvpexample.app.main.MainActivity to AdapterView.OnItemClickListener--><path d="M2002.18,191.417 C2011.17,216.382 2029.12,254.894 2059,274 C2263.57,404.784 2393.15,210.175 2602,334 C2648.14,361.356 2680.14,415.762 2698.02,453.836 " fill="none" id="com.antonioleiva.mvpexample.app.main.MainActivity-AdapterView.OnItemClickListener" style="stroke: #A80036; stroke-width: 1.0;"/><polygon fill="none" points="2704.49,451.156,2706.19,472.278,2691.69,456.825,2704.49,451.156" style="stroke: #A80036; stroke-width: 1.0;"/><!--link com.antonioleiva.mvpexample.app.main.MainActivity to com.antonioleiva.mvpexample.app.main.MainView--><path d="M1994.65,191.029 C1993.82,245.289 1991.73,381.867 1990.66,452.183 " fill="none" id="com.antonioleiva.mvpexample.app.main.MainActivity-com.antonioleiva.mvpexample.app.main.MainView" style="stroke: #A80036; stroke-width: 1.0;"/><polygon fill="none" points="1997.66,452.606,1990.35,472.496,1983.66,452.392,1997.66,452.606" style="stroke: #A80036; stroke-width: 1.0;"/><!--link com.antonioleiva.mvpexample.app.main.MainPresenterImpl to FindItemsInteractor.OnFinishedListener--><path d="M2500.21,191.063 C2535.12,213.969 2591.35,249.168 2643,274 C2711.82,307.089 2743.9,286.892 2804,334 C2845.1,366.211 2876.54,418.07 2895.08,454.306 " fill="none" id="com.antonioleiva.mvpexample.app.main.MainPresenterImpl-FindItemsInteractor.OnFinishedListener" style="stroke: #A80036; stroke-width: 1.0;"/><polygon fill="none" points="2901.41,451.325,2903.92,472.366,2888.84,457.48,2901.41,451.325" style="stroke: #A80036; stroke-width: 1.0;"/><!--link com.antonioleiva.mvpexample.app.main.MainPresenterImpl to com.antonioleiva.mvpexample.app.main.MainPresenter--><path d="M2462.34,191.029 C2455.87,231.799 2442.02,319.044 2430.79,389.735 " fill="none" id="com.antonioleiva.mvpexample.app.main.MainPresenterImpl-com.antonioleiva.mvpexample.app.main.MainPresenter" style="stroke: #A80036; stroke-width: 1.0;"/><polygon fill="none" points="2437.68,390.997,2427.63,409.652,2423.85,388.802,2437.68,390.997" style="stroke: #A80036; stroke-width: 1.0;"/><!--link android.view.Menu to android.view.MenuItem--><!--link android.view.Menu to android.view.View--><!--link android.widget.AdapterView to android.widget.ArrayAdapter--><!--link android.widget.ArrayAdapter to android.widget.EditText--><!--link android.widget.AdapterView to android.widget.ListView--><!--link android.widget.ListView to android.widget.ProgressBar--><!--link android.widget.ProgressBar to android.widget.Toast--><!--link org.mockito.ArgumentCaptor to org.mockito.Matchers--><!--link org.mockito.ArgumentCaptor to org.mockito.Mockito--><!--link android.view.MenuItem to android.widget.AdapterView--><!--link android.view.View to org.mockito.ArgumentCaptor--><!--
@startuml
class android.app.Activity
class android.content.Intent
class android.os.Bundle
class android.os.Handler
class android.text.TextUtils
class android.view.Menu
class android.view.MenuItem
class android.view.View
class android.widget.AdapterView
class android.widget.ArrayAdapter
class android.widget.EditText
class android.widget.ListView
class android.widget.ProgressBar
class android.widget.Toast
class com.antonioleiva.mvpexample.app.Login.LoginActivity {
 # void onCreate(Bundle savedInstanceState) 
# void onDestroy() 
+ void showProgress() 
+ void hideProgress() 
+ void setUsernameError() 
+ void setPasswordError() 
+ void navigateToHome() 
+ void onClick(View v) 
    - ProgressBar progressBar;
    - EditText username;
    - EditText password;
    - LoginPresenter presenter;
 
}
class com.antonioleiva.mvpexample.app.Login.LoginInteractor {
  
}Impl
class com.antonioleiva.mvpexample.app.Login.LoginPresenter {
  
}Impl
class com.antonioleiva.mvpexample.app.R
class com.antonioleiva.mvpexample.app.main.FindItemsInteractor {
  
}Impl
class com.antonioleiva.mvpexample.app.main.MainActivity {
 # void onCreate(Bundle savedInstanceState) 
# void onResume() 
+ boolean onCreateOptionsMenu(Menu menu) 
+ boolean onOptionsItemSelected(MenuItem item) 
# void onDestroy() 
+ void showProgress() 
+ void hideProgress() 
+ void setItems(List<String> items) 
+ void showMessage(String message) 
+ void onItemClick(AdapterView<?> parent, View view, int position, long id) 
    - ListView listView;
    - ProgressBar progressBar;
    - MainPresenter presenter;
 
}
class com.antonioleiva.mvpexample.app.main.MainPresenter {
  
}Impl
class com.antonioleiva.mvpexample.app.main.MainPresenterTest {
 + void setUp() 
+ void checkIfShowsProgressOnResume() 
+ void checkIfShowsMessageOnItemClick() 
+ void checkIfRightMessageIsDisplayed() 
+ void checkIfViewIsReleasedOnDestroy() 
+ void checkIfItemsArePassedToView() 
    - MainPresenterImpl presenter;
 
}
class org.hamcrest.CoreMatchers
class org.hamcrest.MatcherAssert
class org.junit.Assert
class org.mockito.ArgumentCaptor
class org.mockito.Matchers
class org.mockito.Mockito
class org.mockito.runners.MockitoJUnitRunner
interface AdapterView.OnItemClickListener
interface FindItemsInteractor.OnFinishedListener
interface LoginInteractor.OnLoginFinishedListener
interface View.OnClickListener
interface com.antonioleiva.mvpexample.app.Login.LoginInteractor {
  
}
interface com.antonioleiva.mvpexample.app.Login.LoginPresenter {
  
}
interface com.antonioleiva.mvpexample.app.Login.LoginView {
  
}
interface com.antonioleiva.mvpexample.app.main.FindItemsInteractor {
  
}
interface com.antonioleiva.mvpexample.app.main.MainPresenter {
  
}
interface com.antonioleiva.mvpexample.app.main.MainView {
  
}
com.antonioleiva.mvpexample.app.Login.LoginActivity - -|> android.app.Activity
com.antonioleiva.mvpexample.app.Login.LoginActivity - -|> View.OnClickListener
com.antonioleiva.mvpexample.app.Login.LoginActivity - -|> com.antonioleiva.mvpexample.app.Login.LoginView
com.antonioleiva.mvpexample.app.Login.LoginInteractorImpl - -|> com.antonioleiva.mvpexample.app.Login.LoginInteractor
com.antonioleiva.mvpexample.app.Login.LoginPresenterImpl - -|> LoginInteractor.OnLoginFinishedListener
com.antonioleiva.mvpexample.app.Login.LoginPresenterImpl - -|> com.antonioleiva.mvpexample.app.Login.LoginPresenter
com.antonioleiva.mvpexample.app.main.FindItemsInteractorImpl - -|> com.antonioleiva.mvpexample.app.main.FindItemsInteractor
com.antonioleiva.mvpexample.app.main.MainActivity - -|> android.app.Activity
com.antonioleiva.mvpexample.app.main.MainActivity - -|> AdapterView.OnItemClickListener
com.antonioleiva.mvpexample.app.main.MainActivity - -|> com.antonioleiva.mvpexample.app.main.MainView
com.antonioleiva.mvpexample.app.main.MainPresenterImpl - -|> FindItemsInteractor.OnFinishedListener
com.antonioleiva.mvpexample.app.main.MainPresenterImpl - -|> com.antonioleiva.mvpexample.app.main.MainPresenter
@enduml

PlantUML version 1.2017.13(Wed May 10 19:52:33 EEST 2017)
(GPL source distribution)
Java Runtime: Java(TM) SE Runtime Environment
JVM: Java HotSpot(TM) 64-Bit Server VM
Java Version: 1.8.0_102-b14
Operating System: Windows 8.1
OS Version: 6.3
Default Encoding: UTF-8
Language: en
Country: US
--></g></svg>